<svg width="48" height="48" viewBox="0 0 48 48" fill="none" xmlns="http://www.w3.org/2000/svg">
<circle cx="24" cy="24" r="20" fill="url(#paint0_linear_22_1423)"/>
<path d="M24 9C28.1593 9 31.9226 10.6934 34.6396 13.4277L35.1514 13.9395C35.1862 13.9739 35.2204 14.0091 35.2549 14.0439C35.2897 14.0785 35.3249 14.1126 35.3594 14.1475L35.6514 14.4395C35.6862 14.4739 35.7204 14.5091 35.7549 14.5439C35.7897 14.5785 35.8249 14.6126 35.8594 14.6475C35.8901 14.6779 35.9207 14.7085 35.9512 14.7393C35.986 14.7737 36.0202 14.8089 36.0547 14.8438C36.0882 14.877 36.1221 14.9098 36.1553 14.9434C36.1888 14.9766 36.2217 15.0104 36.2549 15.0439C36.2897 15.0785 36.3249 15.1126 36.3594 15.1475C36.3901 15.1779 36.4207 15.2085 36.4512 15.2393C36.486 15.2737 36.5202 15.3089 36.5547 15.3438C36.5882 15.377 36.6221 15.4098 36.6553 15.4434C36.6931 15.4808 36.7302 15.5188 36.7676 15.5566C36.7924 15.5813 36.8171 15.606 36.8418 15.6309C36.8796 15.6682 36.9177 15.7054 36.9551 15.7432C36.9886 15.7764 37.0215 15.8102 37.0547 15.8438C37.0882 15.877 37.1221 15.9098 37.1553 15.9434C37.193 15.9808 37.2302 16.0188 37.2676 16.0566C37.2924 16.0813 37.3171 16.106 37.3418 16.1309C37.3796 16.1682 37.4177 16.2054 37.4551 16.2432C37.4929 16.2806 37.53 16.3186 37.5674 16.3564L37.8418 16.6309C37.8796 16.6682 37.9177 16.7054 37.9551 16.7432C37.9909 16.7786 38.0261 16.8148 38.0615 16.8506L39.1504 17.9395C39.1852 17.9739 39.2194 18.0091 39.2539 18.0439C39.2887 18.0785 39.3239 18.1126 39.3584 18.1475L39.6504 18.4395C39.6852 18.4739 39.7194 18.5091 39.7539 18.5439C39.7887 18.5785 39.8239 18.6126 39.8584 18.6475L40.1543 18.9434C40.1878 18.9766 40.2207 19.0104 40.2539 19.0439C40.2887 19.0785 40.3239 19.1126 40.3584 19.1475C40.3891 19.1779 40.4197 19.2085 40.4502 19.2393C40.485 19.2737 40.5192 19.3089 40.5537 19.3438C40.5872 19.377 40.6211 19.4098 40.6543 19.4434C40.6921 19.4808 40.7292 19.5188 40.7666 19.5566C40.7914 19.5813 40.8162 19.606 40.8408 19.6309C40.8786 19.6682 40.9167 19.7054 40.9541 19.7432C40.9876 19.7764 41.0205 19.8102 41.0537 19.8438C41.0872 19.877 41.1211 19.9098 41.1543 19.9434C41.1921 19.9808 41.2292 20.0188 41.2666 20.0566C41.2914 20.0813 41.3162 20.106 41.3408 20.1309C41.3786 20.1682 41.4167 20.2054 41.4541 20.2432C41.4919 20.2806 41.529 20.3186 41.5664 20.3564L41.8408 20.6309C41.8786 20.6682 41.9167 20.7054 41.9541 20.7432C41.9919 20.7806 42.029 20.8186 42.0664 20.8564L43.1494 21.9395C43.1843 21.9739 43.2184 22.0091 43.2529 22.0439C43.2878 22.0785 43.3229 22.1126 43.3574 22.1475L43.6494 22.4395C43.6843 22.4739 43.7184 22.5091 43.7529 22.5439C43.7878 22.5785 43.8229 22.6126 43.8574 22.6475L43.959 22.749C43.9845 23.1628 44 23.5798 44 24C44 35.0457 35.0457 44 24 44C23.5785 44 23.1602 43.9847 22.7451 43.959L22.6543 43.8682C22.6165 43.8308 22.5784 43.7936 22.541 43.7559C22.5032 43.7184 22.4661 43.6804 22.4287 43.6426L22.1543 43.3682C22.1165 43.3308 22.0784 43.2936 22.041 43.2559C22.0032 43.2184 21.9661 43.1804 21.9287 43.1426L20.8418 42.0557C20.8083 42.0225 20.7754 41.9886 20.7422 41.9551C20.7074 41.9206 20.6722 41.8864 20.6377 41.8516L20.3418 41.5557C20.3083 41.5225 20.2754 41.4886 20.2422 41.4551C20.2074 41.4206 20.1722 41.3864 20.1377 41.3516C20.107 41.3211 20.0764 41.2905 20.0459 41.2598C20.0111 41.2253 19.9769 41.1901 19.9424 41.1553C19.9076 41.1208 19.8724 41.0866 19.8379 41.0518C19.8057 41.0198 19.7741 40.9873 19.7422 40.9551C19.7074 40.9206 19.6722 40.8864 19.6377 40.8516C19.607 40.8211 19.5764 40.7905 19.5459 40.7598C19.5111 40.7253 19.4769 40.6901 19.4424 40.6553C19.4076 40.6208 19.3724 40.5866 19.3379 40.5518C19.3014 40.5156 19.2656 40.4789 19.2295 40.4424C19.2047 40.4177 19.1799 40.393 19.1553 40.3682C19.1175 40.3308 19.0794 40.2936 19.042 40.2559C19.0085 40.2226 18.9756 40.1888 18.9424 40.1553C18.9076 40.1208 18.8724 40.0866 18.8379 40.0518C18.8014 40.0156 18.7656 39.9789 18.7295 39.9424C18.7047 39.9177 18.6799 39.893 18.6553 39.8682C18.6175 39.8308 18.5794 39.7936 18.542 39.7559C18.5042 39.7184 18.4671 39.6804 18.4297 39.6426L18.1553 39.3682C18.1175 39.3308 18.0794 39.2936 18.042 39.2559C18.0042 39.2184 17.9671 39.1804 17.9297 39.1426L16.8467 38.0596C16.8118 38.0251 16.7777 37.9899 16.7432 37.9551C16.7083 37.9206 16.6732 37.8864 16.6387 37.8516L16.3467 37.5596C16.3118 37.5251 16.2777 37.4899 16.2432 37.4551C16.2083 37.4206 16.1732 37.3864 16.1387 37.3516C16.1079 37.3211 16.0773 37.2905 16.0469 37.2598C16.012 37.2253 15.9779 37.1901 15.9434 37.1553C15.9098 37.1221 15.876 37.0892 15.8428 37.0557C15.8093 37.0225 15.7764 36.9886 15.7432 36.9551C15.7083 36.9206 15.6732 36.8864 15.6387 36.8516C15.6079 36.8211 15.5773 36.7905 15.5469 36.7598C15.512 36.7253 15.4779 36.6901 15.4434 36.6553C15.4098 36.6221 15.376 36.5892 15.3428 36.5557C15.305 36.5182 15.2678 36.4802 15.2305 36.4424C15.2056 36.4177 15.1809 36.393 15.1562 36.3682C15.1184 36.3308 15.0804 36.2936 15.043 36.2559C15.0094 36.2226 14.9766 36.1888 14.9434 36.1553C14.9098 36.1221 14.876 36.0892 14.8428 36.0557C14.805 36.0182 14.7678 35.9802 14.7305 35.9424C14.7056 35.9177 14.6809 35.893 14.6562 35.8682C14.6184 35.8308 14.5804 35.7936 14.543 35.7559C14.5052 35.7184 14.468 35.6804 14.4307 35.6426L14.1562 35.3682C14.1184 35.3308 14.0804 35.2936 14.043 35.2559C14.0052 35.2184 13.968 35.1804 13.9307 35.1426L13.4277 34.6396C10.6934 31.9226 9 28.1593 9 24C9 15.7157 15.7157 9 24 9Z" fill="url(#paint1_linear_22_1423)"/>
<path d="M23.3744 39C19.7001 38.8494 16.3666 37.3798 13.8355 35.05L23.3744 25.5117V39Z" fill="url(#paint2_linear_22_1423)"/>
<path d="M34.1636 35.05C31.6325 37.3795 28.2996 38.8494 24.6256 39V25.5117L34.1636 35.05Z" fill="url(#paint3_linear_22_1423)"/>
<path d="M22.4889 24.6261L12.9499 34.1644C10.6207 31.6333 9.15059 28.3 9 24.6261H22.4889Z" fill="url(#paint4_linear_22_1423)"/>
<path d="M39 24.6261C38.8494 28.3003 37.3786 31.6332 35.0491 34.1644L25.5111 24.6261H39Z" fill="url(#paint5_linear_22_1423)"/>
<path d="M35.0491 13.8356C37.3789 16.3669 38.8494 19.7005 39 23.3749H25.5111L35.0491 13.8356Z" fill="url(#paint6_linear_22_1423)"/>
<path d="M22.4889 23.3749H9C9.1506 19.7007 10.6204 16.3668 12.9499 13.8356L22.4889 23.3749Z" fill="url(#paint7_linear_22_1423)"/>
<path d="M23.3744 22.4893L13.8355 12.95C16.3666 10.6205 19.7003 9.1506 23.3744 9V22.4893Z" fill="url(#paint8_linear_22_1423)"/>
<path d="M24.6256 9C28.2994 9.15059 31.6325 10.6208 34.1636 12.95L24.6256 22.4893V9Z" fill="url(#paint9_linear_22_1423)"/>
<path d="M43.9932 23.4834C43.9975 23.6551 44 23.8273 44 24C44 35.0457 35.0457 44 24 44C12.9543 44 4 35.0457 4 24C4 23.8273 4.00248 23.6551 4.00684 23.4834C4.26356 34.3058 13.1159 43 24 43C34.873 43 43.7192 34.3235 43.9932 23.5166V23.4834Z" fill="black" fill-opacity="0.1"/>
<defs>
<linearGradient id="paint0_linear_22_1423" x1="-429.967" y1="44" x2="-429.967" y2="4" gradientUnits="userSpaceOnUse">
<stop stop-color="#2A2C2F"/>
<stop offset="1" stop-color="#424649"/>
</linearGradient>
<linearGradient id="paint1_linear_22_1423" x1="24" y1="24" x2="36.5" y2="36.5" gradientUnits="userSpaceOnUse">
<stop stop-opacity="0.2"/>
<stop offset="1" stop-opacity="0"/>
</linearGradient>
<linearGradient id="paint2_linear_22_1423" x1="24" y1="9" x2="24" y2="39" gradientUnits="userSpaceOnUse">
<stop stop-color="white"/>
<stop offset="1" stop-color="#B3B5B6"/>
</linearGradient>
<linearGradient id="paint3_linear_22_1423" x1="24" y1="9" x2="24" y2="39" gradientUnits="userSpaceOnUse">
<stop stop-color="white"/>
<stop offset="1" stop-color="#B3B5B6"/>
</linearGradient>
<linearGradient id="paint4_linear_22_1423" x1="24" y1="9" x2="24" y2="39" gradientUnits="userSpaceOnUse">
<stop stop-color="white"/>
<stop offset="1" stop-color="#B3B5B6"/>
</linearGradient>
<linearGradient id="paint5_linear_22_1423" x1="24" y1="9" x2="24" y2="39" gradientUnits="userSpaceOnUse">
<stop stop-color="white"/>
<stop offset="1" stop-color="#B3B5B6"/>
</linearGradient>
<linearGradient id="paint6_linear_22_1423" x1="24" y1="9" x2="24" y2="39" gradientUnits="userSpaceOnUse">
<stop stop-color="white"/>
<stop offset="1" stop-color="#B3B5B6"/>
</linearGradient>
<linearGradient id="paint7_linear_22_1423" x1="24" y1="9" x2="24" y2="39" gradientUnits="userSpaceOnUse">
<stop stop-color="white"/>
<stop offset="1" stop-color="#B3B5B6"/>
</linearGradient>
<linearGradient id="paint8_linear_22_1423" x1="24" y1="9" x2="24" y2="39" gradientUnits="userSpaceOnUse">
<stop stop-color="white"/>
<stop offset="1" stop-color="#B3B5B6"/>
</linearGradient>
<linearGradient id="paint9_linear_22_1423" x1="24" y1="9" x2="24" y2="39" gradientUnits="userSpaceOnUse">
<stop stop-color="white"/>
<stop offset="1" stop-color="#B3B5B6"/>
</linearGradient>
</defs>
</svg>
