<svg width="48" height="48" viewBox="0 0 48 48" fill="none" xmlns="http://www.w3.org/2000/svg">
<path d="M7 4H41V44H7V4Z" fill="url(#paint0_linear_8_254)"/>
<path d="M11.25 39.7143H36.75V44H11.25V39.7143Z" fill="#292C2E"/>
<path d="M14.0833 41.1429H26.8333V42.5714H14.0833V41.1429ZM28.25 41.1429H33.9167V42.5714H28.25V41.1429Z" fill="#F6B44D"/>
<path opacity="0.2" d="M35.3333 39.7143H41V44H35.3333V39.7143ZM7 39.7143H12.6667V44H7V39.7143Z" fill="#292C2F"/>
<path opacity="0.2" d="M7 39.7143H12.6667V44H11.25L7 39.7143ZM35.3333 39.7143H41V44H35.3333V39.7143Z" fill="#292C2F"/>
<path opacity="0.2" d="M36.0912 8.95L41 13.8971V44H21.1667L9.83333 32.5714L36.0912 8.95Z" fill="url(#paint1_linear_8_254)"/>
<path d="M16.9167 6.85714C15.038 6.85714 13.2364 7.60969 11.908 8.94924C10.5796 10.2888 9.83333 12.1056 9.83333 14V20.8114C10.2574 21.1945 10.6009 21.6596 10.8432 22.1792C11.0856 22.6987 11.222 23.262 11.2443 23.8357C11.2478 23.8904 11.2498 23.9452 11.2501 24C11.2501 24.0954 11.2454 24.1908 11.236 24.2857C11.236 24.2881 11.236 24.2905 11.236 24.2929C11.1591 25.4044 10.6561 26.442 9.83346 27.1858V32.5715L14.0834 36.8572H33.9167L38.1667 32.5715V27.1886C37.7427 26.8055 37.3992 26.3404 37.1568 25.8209C36.9144 25.3014 36.7781 24.738 36.7557 24.1643C36.7522 24.1097 36.7503 24.0549 36.7499 24.0001C36.7497 23.9023 36.7544 23.8045 36.7641 23.7072C36.8409 22.5957 37.344 21.5581 38.1666 20.8143V14C38.1666 12.1056 37.4203 10.2888 36.092 8.94925C34.7636 7.60971 32.9619 6.85716 31.0833 6.85714H16.9167Z" fill="url(#paint2_linear_8_254)"/>
<path opacity="0.2" d="M7 42.5714H11.25V44H7V42.5714ZM36.75 42.5714H41V44H36.75V42.5714Z" fill="#292C2F"/>
<path d="M26.4134 12.1102C26.678 12.1542 26.9802 12.2507 27.1848 12.4891C27.22 12.519 27.2533 12.5516 27.2844 12.5877L27.5843 12.8875C27.6202 12.9179 27.6532 12.9522 27.6848 12.9891C27.72 13.019 27.7533 13.0516 27.7844 13.0877L28.0843 13.3875C28.1202 13.4179 28.1532 13.4522 28.1848 13.4891C28.22 13.519 28.2533 13.5516 28.2844 13.5877L28.5843 13.8875C28.6202 13.9179 28.6532 13.9522 28.6848 13.9891C28.7207 14.0195 28.7548 14.0527 28.7864 14.0897L29.8811 15.1844C30.3217 14.9313 30.7766 14.6844 30.7766 14.6844L30.7259 14.87C30.819 14.8165 30.8762 14.784 30.8762 14.784L30.8255 14.9706C30.919 14.9169 30.9768 14.8846 30.9768 14.8846L30.926 15.0702C31.0192 15.0167 31.0764 14.9842 31.0764 14.9842L31.0257 15.1707C31.1144 15.1199 31.1706 15.0879 31.176 15.0848L31.1253 15.2704C31.2188 15.2167 31.2766 15.1844 31.2766 15.1844L31.2259 15.37C31.319 15.3165 31.3762 15.284 31.3762 15.284L31.3255 15.4706C31.419 15.4169 31.4768 15.3846 31.4768 15.3846L31.426 15.5702C31.5192 15.5167 31.5764 15.4842 31.5764 15.4842L31.5257 15.6707C31.6142 15.6199 31.6705 15.588 31.676 15.5848L31.6253 15.7704C31.7188 15.7167 31.7766 15.6844 31.7766 15.6844L31.7259 15.87C31.819 15.8165 31.8762 15.784 31.8762 15.784L31.8255 15.9706C31.919 15.9169 31.9768 15.8846 31.9768 15.8846L31.926 16.0702C32.0192 16.0167 32.0764 15.9842 32.0764 15.9842L32.0257 16.1707C32.1141 16.12 32.1703 16.0881 32.176 16.0848L32.1253 16.2704C32.2188 16.2167 32.2766 16.1844 32.2766 16.1844L32.2259 16.37C32.3182 16.317 32.3762 16.284 32.3762 16.284L32.3255 16.4706C32.419 16.4169 32.4768 16.3846 32.4768 16.3846L32.426 16.5702C32.5192 16.5167 32.5764 16.4842 32.5764 16.4842L32.5257 16.6707C32.6192 16.6171 32.677 16.5848 32.677 16.5848L32.6262 16.7704C32.7194 16.7169 32.7766 16.6844 32.7766 16.6844L32.7259 16.87C32.8177 16.8173 32.8762 16.784 32.8762 16.784L32.8255 16.9706C32.919 16.9169 32.9768 16.8846 32.9768 16.8846L32.926 17.0702C33.0192 17.0167 33.0764 16.9842 33.0764 16.9842L33.0257 17.1707C33.1192 17.1171 33.177 17.0848 33.177 17.0848L33.1262 17.2704C33.2194 17.2169 33.2766 17.1844 33.2766 17.1844L33.2259 17.37C33.3173 17.3175 33.3741 17.2852 33.3762 17.284L33.3255 17.4706C33.419 17.4169 33.4768 17.3846 33.4768 17.3846L33.426 17.5702C33.5186 17.5171 33.5764 17.4842 33.5764 17.4842L33.5257 17.6707C33.6192 17.6171 33.677 17.5848 33.677 17.5848L33.6262 17.7704C33.7194 17.7169 33.7766 17.6844 33.7766 17.6844L33.7259 17.87C33.817 17.8177 33.8737 17.7855 33.8762 17.784L33.8255 17.9706C33.919 17.9169 33.9768 17.8846 33.9768 17.8846L33.926 18.0702C34.018 18.0174 34.0764 17.9842 34.0764 17.9842L34.0257 18.1707C34.1192 18.1171 34.177 18.0848 34.177 18.0848L34.1262 18.2694C34.2192 18.2161 34.2766 18.1844 34.2766 18.1844L34.2259 18.37C34.3167 18.3178 34.3734 18.2856 34.3762 18.284L34.3255 18.4706C34.419 18.4169 34.4768 18.3846 34.4768 18.3846L34.426 18.5702C34.5176 18.5177 34.5744 18.4854 34.5764 18.4842L34.5257 18.6707C34.6192 18.6171 34.677 18.5848 34.677 18.5848L34.6262 18.7694C34.7187 18.7163 34.7766 18.6844 34.7766 18.6844L34.7259 18.87C34.8165 18.818 34.8732 18.7858 34.8762 18.784L34.8255 18.9706C34.9191 18.9169 34.9768 18.8846 34.9768 18.8846L34.926 19.0702C35.0172 19.0178 35.074 18.9856 35.0764 18.9842L35.0257 19.1707C35.1192 19.1171 35.177 19.0848 35.177 19.0848L35.1262 19.2694C35.218 19.2168 35.2766 19.1844 35.2766 19.1844L35.2259 19.37C35.3163 19.3181 35.3729 19.286 35.3762 19.284L35.3255 19.4706C35.4191 19.4168 35.4768 19.3846 35.4768 19.3846L35.426 19.5702C35.517 19.518 35.5737 19.4858 35.5764 19.4842L35.5257 19.6707C35.6192 19.6171 35.677 19.5848 35.677 19.5848L35.6262 19.7694C35.7175 19.717 35.7746 19.6856 35.7766 19.6844L35.7259 19.87C35.8192 19.8164 35.8772 19.784 35.8772 19.784L35.8264 19.9706C35.9192 19.9173 35.9768 19.8846 35.9768 19.8846L35.926 20.0702C36.0167 20.0182 36.0733 19.986 36.0764 19.9842L36.0257 20.1707C36.1193 20.117 36.177 20.0848 36.177 20.0848L36.1262 20.2694C36.2172 20.2172 36.2742 20.1858 36.2766 20.1844L36.2259 20.37C36.3192 20.3164 36.3772 20.284 36.3772 20.284L36.3264 20.4706C36.4184 20.4178 36.4768 20.3846 36.4768 20.3846L36.426 20.5702C36.5165 20.5183 36.5731 20.4862 36.5764 20.4842L36.5257 20.6707C36.6193 20.617 36.677 20.5848 36.677 20.5848L36.6262 20.7694C36.7169 20.7174 36.7738 20.686 36.7766 20.6844L36.7259 20.87C36.8192 20.8164 36.8772 20.784 36.8772 20.784L36.8264 20.9706C36.918 20.918 36.9748 20.8858 36.9768 20.8846L36.926 21.0702C37.0163 21.0184 37.0728 20.9863 37.0764 20.9842L37.0257 21.1707C37.1188 21.1173 37.177 21.0848 37.177 21.0848L37.1262 21.2694C37.2166 21.2175 37.2735 21.1862 37.2766 21.1844L37.2259 21.37C37.3192 21.3164 37.3772 21.284 37.3772 21.284L37.3264 21.4706C37.4176 21.4182 37.4744 21.386 37.4768 21.3846L37.426 21.5702C37.5161 21.5185 37.5726 21.4864 37.5764 21.4842L37.5257 21.6707C37.6181 21.6177 37.677 21.5848 37.677 21.5848L37.6262 21.7694C37.7164 21.7176 37.7733 21.6864 37.7766 21.6844L37.7259 21.87C37.8192 21.8164 37.8772 21.784 37.8772 21.784L37.8264 21.9706C37.9173 21.9184 37.974 21.8862 37.9768 21.8846L37.926 22.0702C38.0159 22.0186 38.0724 21.9866 38.0764 21.9842L38.0257 22.1707C38.1176 22.118 38.175 22.086 38.177 22.0848L38.1262 22.2694C38.2162 22.2178 38.273 22.1865 38.2766 22.1844L38.2259 22.37C38.3192 22.3164 38.3772 22.284 38.3772 22.284L38.3264 22.4706C38.4171 22.4185 38.4737 22.3864 38.4768 22.3846L38.426 22.5702C38.5157 22.5187 38.5721 22.4867 38.5764 22.4842L38.5257 22.6707C38.6173 22.6182 38.6746 22.5862 38.677 22.5848L38.6262 22.7694C38.716 22.7179 38.7728 22.6866 38.7766 22.6844L38.7259 22.87C38.8193 22.8164 38.8772 22.784 38.8772 22.784L38.8264 22.9706C38.9169 22.9187 38.9734 22.8866 38.9768 22.8846L38.926 23.0702C39.0194 23.0166 39.0774 22.9842 39.0774 22.9842L39.0266 23.1707C39.1175 23.1186 39.1742 23.0864 39.177 23.0848L39.1262 23.2694C39.2158 23.218 39.2726 23.1868 39.2766 23.1844L39.2259 23.37C39.3193 23.3164 39.3772 23.284 39.3772 23.284L39.3264 23.4706C39.4166 23.4188 39.4732 23.3867 39.4768 23.3846L39.426 23.5702C39.5194 23.5166 39.5774 23.4842 39.5774 23.4842L39.5266 23.6707C39.6173 23.6187 39.6739 23.5866 39.677 23.5848L39.6262 23.7694C39.7157 23.7181 39.7723 23.6869 39.7766 23.6844L39.7259 23.87C39.8193 23.8164 39.8772 23.784 39.8772 23.784L39.8264 23.9706C39.9165 23.9189 39.973 23.8868 39.9768 23.8846L39.926 24.0702C40.0194 24.0166 40.0774 23.9842 40.0774 23.9842L40.0266 24.1707C40.1171 24.1189 40.1736 24.0868 40.177 24.0848L40.1262 24.2694C40.2155 24.2182 40.2721 24.187 40.2766 24.1844L40.2259 24.37C40.3193 24.3164 40.3772 24.284 40.3772 24.284L40.3264 24.4706C40.4163 24.419 40.4727 24.387 40.4768 24.3846L40.426 24.5702C40.5195 24.5166 40.5774 24.4842 40.5774 24.4842L40.5266 24.6707C40.6168 24.619 40.6734 24.5869 40.677 24.5848L40.6262 24.7704C40.7156 24.7191 40.7719 24.6871 40.7766 24.6844L40.7259 24.87C40.8193 24.8163 40.8772 24.784 40.8772 24.784L40.8264 24.9706C40.9161 24.9191 40.9725 24.8871 40.9768 24.8846L40.926 25.0702C40.9543 25.0539 40.9791 25.0392 41.0003 25.0272V43.9998H30.7542L29.0833 42.329C29.0475 42.2972 29.0145 42.2631 28.9837 42.2284C28.9482 42.197 28.9147 42.1641 28.8841 42.1297L28.5833 41.829C28.5475 41.7972 28.5145 41.7631 28.4837 41.7284C28.4482 41.697 28.4147 41.6641 28.3841 41.6297L28.0833 41.329C28.0464 41.2963 28.0113 41.2622 27.9798 41.2264C27.9455 41.1958 27.9138 41.163 27.8841 41.1297L26.5833 39.829C26.5478 39.7976 26.5143 39.7646 26.4837 39.7303C26.4475 39.6983 26.4142 39.6638 26.3831 39.6288L26.0833 39.329C26.0478 39.2976 26.0143 39.2646 25.9837 39.2303C25.9475 39.1983 25.9142 39.1638 25.8831 39.1288L25.5833 38.829C25.5478 38.7976 25.5143 38.7646 25.4837 38.7303C25.4475 38.6983 25.4142 38.6638 25.3831 38.6288L25.0833 38.329C25.0478 38.2976 25.0143 38.2646 24.9837 38.2303C24.9475 38.1983 24.9142 38.1638 24.8831 38.1288C24.8452 38.0952 24.8089 38.0602 24.7766 38.0233C24.7435 37.9935 24.7127 37.9619 24.6839 37.9295C24.6479 37.8977 24.6143 37.8638 24.5833 37.829C24.5478 37.7976 24.5143 37.7646 24.4837 37.7303C24.4475 37.6983 24.4142 37.6638 24.3831 37.6288L24.0833 37.329C24.0478 37.2976 24.0143 37.2646 23.9837 37.2303C23.9475 37.1983 23.9142 37.1638 23.8831 37.1288L23.5833 36.829C23.5478 36.7976 23.5143 36.7646 23.4837 36.7303C23.4475 36.6983 23.4142 36.6638 23.3831 36.6288C23.3466 36.5964 23.3119 36.5626 23.2805 36.5272C23.2455 36.496 23.2131 36.4626 23.1829 36.4286C23.1473 36.397 23.114 36.3635 23.0833 36.329C23.0478 36.2976 23.0143 36.2646 22.9837 36.2303C22.9475 36.1983 22.9142 36.1638 22.8831 36.1288C22.8466 36.0964 22.8119 36.0626 22.7805 36.0272C22.7455 35.996 22.7131 35.9626 22.6829 35.9286C22.6473 35.897 22.614 35.8635 22.5833 35.829C22.5468 35.7966 22.5121 35.7628 22.4807 35.7274C22.4457 35.6962 22.4134 35.6628 22.3831 35.6288C22.3466 35.5964 22.3119 35.5626 22.2805 35.5272C22.2455 35.496 22.2131 35.4626 22.1829 35.4286C22.1473 35.397 22.114 35.3635 22.0833 35.329C22.0468 35.2966 22.0121 35.2628 21.9807 35.2274C21.9457 35.1962 21.9134 35.1628 21.8831 35.1288C21.8466 35.0964 21.8119 35.0626 21.7805 35.0272C21.7455 34.996 21.7131 34.9626 21.6829 34.9286C21.6462 34.896 21.6118 34.8617 21.5803 34.826C21.545 34.7945 21.5112 34.7618 21.4807 34.7274C21.4457 34.6962 21.4134 34.6628 21.3831 34.6288C21.3466 34.5964 21.3119 34.5626 21.2805 34.5272C21.2455 34.496 21.2131 34.4626 21.1829 34.4286C21.1467 34.3965 21.1124 34.363 21.0813 34.328C21.0454 34.2961 21.0116 34.2623 20.9807 34.2274C20.9457 34.1962 20.9134 34.1628 20.8831 34.1288C20.8466 34.0964 20.8119 34.0626 20.7805 34.0272C20.7455 33.996 20.7131 33.9626 20.6829 33.9286C20.6467 33.8965 20.6124 33.863 20.5813 33.828C20.5454 33.7961 20.5116 33.7623 20.4807 33.7274C20.4457 33.6962 20.4134 33.6628 20.3831 33.6288C20.3466 33.5964 20.3119 33.5626 20.2805 33.5272C20.2455 33.496 20.2132 33.4626 20.1829 33.4286C20.1474 33.3972 20.1139 33.3643 20.0833 33.3299C20.0462 33.2972 20.0115 33.2624 19.9798 33.2264C19.9451 33.1955 19.9131 33.1624 19.8831 33.1288C19.8466 33.0964 19.8119 33.0626 19.7805 33.0272C19.7455 32.996 19.7132 32.9626 19.6829 32.9286C19.6474 32.8972 19.6139 32.8643 19.5833 32.8299C19.5462 32.7972 19.5115 32.7624 19.4798 32.7264C19.4451 32.6955 19.4131 32.6624 19.3831 32.6288C19.3466 32.5964 19.3119 32.5626 19.2805 32.5272C19.2455 32.496 19.2132 32.4626 19.1829 32.4286C19.1474 32.3972 19.1139 32.3643 19.0833 32.3299C19.0462 32.2972 19.0115 32.2624 18.9798 32.2264C18.9451 32.1955 18.9131 32.1624 18.8831 32.1288C18.8466 32.0964 18.8119 32.0626 18.7805 32.0272C18.7455 31.996 18.7132 31.9626 18.6829 31.9286C18.6474 31.8972 18.6139 31.8643 18.5833 31.8299C18.5462 31.7972 18.5115 31.7624 18.4798 31.7264C18.444 31.6946 18.4109 31.6606 18.3801 31.6258C18.3448 31.5943 18.311 31.5616 18.2805 31.5272L16.3831 29.6297C16.3336 29.586 16.2865 29.5403 16.2473 29.4911C16.1668 29.3618 14.5747 26.6386 14.553 26.6014C14.385 26.3199 14.2364 26.0552 14.2122 25.995C14.1099 25.7226 14.036 25.3798 14.1819 25.0614L15.7239 22.367C15.6855 22.3448 15.6624 22.3317 15.6594 22.3299L15.7093 22.3163C15.6189 22.2639 15.562 22.2312 15.5589 22.2293L15.6077 22.2157C15.5182 22.1638 15.4624 22.1315 15.4593 22.1297L15.5081 22.1161L15.3596 22.0301L15.4085 22.0165L15.2591 21.9295L15.3079 21.9159C15.2199 21.8648 15.1644 21.8328 15.1594 21.8299L15.2093 21.8163L15.0589 21.7293L15.1077 21.7157C15.0182 21.6638 14.9624 21.6315 14.9593 21.6297L15.0081 21.6161L14.8596 21.5301L14.9094 21.5165L14.7591 21.4295L14.8079 21.4159C14.72 21.3649 14.6645 21.3329 14.6594 21.3299L14.7093 21.3163L14.5589 21.2293L14.6077 21.2157C14.5183 21.1638 14.4625 21.1316 14.4593 21.1297L14.5081 21.1161L14.3596 21.0301L14.4094 21.0165C14.319 20.964 14.2622 20.9314 14.2591 20.9295L19.719 19.4686L19.7503 19.5858L19.8186 19.5682L19.8499 19.6864L19.9192 19.6688L19.9505 19.786L20.0188 19.7684L20.0501 19.8866L20.1184 19.869L20.1497 19.9862L20.219 19.9686L20.2503 20.0858L20.3186 20.0682L20.3499 20.1864L20.4192 20.1688L20.4505 20.286L20.5188 20.2684L20.5501 20.3866L20.6184 20.369L20.6497 20.4862L20.719 20.4686L20.7503 20.5858L20.8186 20.5682L20.8499 20.6864L20.9192 20.6688L20.9505 20.786L21.0188 20.7684L21.0501 20.8866L21.1184 20.869L21.1497 20.9862L21.219 20.9686L21.2503 21.0858L21.3186 21.0682L21.3499 21.1864L21.4192 21.1688L21.4505 21.286L21.5188 21.2684L21.5501 21.3866L21.6184 21.369L21.6497 21.4862L21.719 21.4686L21.7503 21.5858L21.8186 21.5682L21.8499 21.6864L21.9192 21.6688L21.9505 21.786L22.0188 21.7684L22.0501 21.8866L22.1194 21.869L22.1507 21.9862L22.219 21.9686L22.2503 22.0858L22.3186 22.0682L22.3499 22.1864L22.4192 22.1688L22.4505 22.286L22.5188 22.2684L22.5501 22.3866L22.6194 22.369L22.6507 22.4862L22.719 22.4686L22.7503 22.5858L22.8186 22.5682L22.8499 22.6864L22.9192 22.6688L22.9505 22.786L23.0188 22.7684L23.0501 22.8866L23.1194 22.869L23.1507 22.9862L23.219 22.9686L23.2503 23.0858L23.3186 23.0682L23.3499 23.1864L23.4192 23.1688L23.4505 23.286L23.5188 23.2684L23.5501 23.3866L23.6194 23.369L23.6507 23.4862L23.719 23.4686L23.7503 23.5858L23.8186 23.5682L23.8499 23.6864L23.9192 23.6688L23.9505 23.786L24.0188 23.7684L24.0501 23.8866L24.1194 23.869L24.1507 23.9862L24.219 23.9686L24.2503 24.0858L24.3186 24.0682L24.3499 24.1864L24.4192 24.1688L24.4505 24.286L24.5188 24.2684L24.5501 24.3866L24.6194 24.369L24.6507 24.4862L24.719 24.4686L24.7503 24.5858L24.8186 24.5682L24.8499 24.6864L24.9192 24.6688L24.9505 24.786L25.0188 24.7684L25.0501 24.8866L25.1194 24.869L25.1507 24.9862L25.219 24.9686L25.2503 25.0858L25.3196 25.0682L25.3509 25.1864L25.4192 25.1688L25.4505 25.286L25.5188 25.2684L25.5501 25.3866L25.6194 25.369L25.6507 25.4862L25.719 25.4686L25.7503 25.5858L25.8196 25.5682L25.8509 25.6864L25.9192 25.6688L25.9319 25.7176L26.4514 25.1961L26.3977 25.1649L26.4153 25.1327L26.2981 25.0653C26.2981 25.0653 26.3049 25.0528 26.3167 25.0331L26.1975 24.9647L26.2151 24.9334L26.0979 24.8651C26.0979 24.8651 26.1041 24.8529 26.1155 24.8338L25.9983 24.7655C25.9983 24.7655 26.0051 24.7529 26.0169 24.7332L25.8977 24.6649L25.9153 24.6336L25.7981 24.5653C25.7981 24.5653 25.8049 24.5528 25.8167 24.5331L25.6975 24.4647L25.7151 24.4334L25.5979 24.3651C25.5979 24.3651 25.6039 24.3523 25.6155 24.3329L25.4983 24.2655C25.4983 24.2655 25.5042 24.252 25.5159 24.2323L25.3977 24.1649L25.4153 24.1327L25.2981 24.0653C25.2981 24.0653 25.3049 24.0527 25.3167 24.0331L25.1975 23.9647L25.2151 23.9334L25.0979 23.8651C25.0979 23.8651 25.1042 23.8527 25.1155 23.8338L24.9973 23.7655C24.9973 23.7655 25.0042 23.7528 25.0159 23.7332L24.8977 23.6649L24.9153 23.6336L24.7981 23.5653C24.7981 23.5653 24.8049 23.5527 24.8167 23.5331L24.6975 23.4647L24.7151 23.4334L24.5979 23.3651C24.5979 23.3651 24.6042 23.3527 24.6155 23.3338L24.4973 23.2655C24.4973 23.2655 24.5042 23.2528 24.5159 23.2332L24.3977 23.1649L24.4153 23.1327L24.2981 23.0653C24.2981 23.0653 24.305 23.0526 24.3167 23.0331L24.1975 22.9647L24.2151 22.9334L24.0979 22.8651C24.0979 22.8651 24.1043 22.8526 24.1155 22.8338L23.9973 22.7655C23.9973 22.7655 24.0042 22.7528 24.0159 22.7332L23.8977 22.6649L23.9153 22.6327L23.7981 22.5653C23.7981 22.5653 23.805 22.5526 23.8167 22.5331L23.6975 22.4647L23.7151 22.4334L23.5979 22.3651C23.5979 22.3651 23.6043 22.3525 23.6155 22.3338L23.4973 22.2655C23.4973 22.2655 23.5042 22.2528 23.5159 22.2332L23.3977 22.1649L23.4153 22.1327L23.2981 22.0653C23.2981 22.0653 23.305 22.0525 23.3167 22.0331L23.1975 21.9647L23.2151 21.9334L23.0979 21.8651C23.0979 21.8651 23.1044 21.8525 23.1155 21.8338L22.9973 21.7655C22.9973 21.7655 23.0042 21.7528 23.0159 21.7332L22.8977 21.6649L22.9153 21.6327L22.7981 21.5653C22.7981 21.5653 22.8051 21.5525 22.8167 21.5331L22.6975 21.4647L22.7151 21.4334L22.5979 21.3651C22.5979 21.3651 22.6044 21.3524 22.6155 21.3338L22.4973 21.2655C22.4973 21.2655 22.5042 21.2528 22.5159 21.2332L22.3977 21.1649L22.4153 21.1327L22.2981 21.0653C22.2981 21.0653 22.3039 21.0519 22.3157 21.0321L22.1975 20.9647L22.2151 20.9334L22.0979 20.8651C22.0979 20.8651 22.1044 20.8523 22.1155 20.8338L21.9973 20.7655C21.9973 20.7655 22.0042 20.7528 22.0159 20.7332L21.8977 20.6649L21.9153 20.6336L21.7971 20.5653C21.7971 20.5653 21.804 20.5527 21.8157 20.5331L21.6975 20.4647L21.7151 20.4334L21.5979 20.3651C21.599 20.3634 21.6045 20.3523 21.6155 20.3338L21.4973 20.2655C21.4973 20.2655 21.5042 20.2528 21.5159 20.2332L21.3977 20.1649L21.4153 20.1336L21.2971 20.0653C21.2971 20.0653 21.304 20.0527 21.3157 20.0331L21.1975 19.9647L21.2151 19.9334L21.0979 19.8651C21.099 19.8633 21.1045 19.8522 21.1155 19.8338L20.9973 19.7655C20.9973 19.7655 21.0042 19.7529 21.0159 19.7332L20.8977 19.6649L20.9153 19.6336L20.7971 19.5653C20.7971 19.5653 20.804 19.5527 20.8157 19.5331L20.6975 19.4647L20.7151 19.4334L20.5979 19.3651C20.5991 19.3633 20.6045 19.3522 20.6155 19.3338L20.4973 19.2655C20.4973 19.2655 20.5042 19.2529 20.5159 19.2332L20.3977 19.1649L20.4153 19.1336L20.2971 19.0653C20.2971 19.0653 20.304 19.0527 20.3157 19.0331L20.1975 18.9647L20.2151 18.9334L20.0979 18.8651C20.0991 18.8633 20.1045 18.8522 20.1155 18.8338L19.9973 18.7655C19.9973 18.7655 20.0042 18.7529 20.0159 18.7332L19.8977 18.6649L19.9153 18.6336L19.7971 18.5653C19.7971 18.5653 19.8039 18.5527 19.8157 18.5331L19.6975 18.4647L19.7151 18.4334L19.5979 18.3651C19.5991 18.3632 19.6046 18.3521 19.6155 18.3338L19.4973 18.2655C19.4973 18.2655 19.5042 18.2529 19.5159 18.2332L19.3977 18.1649L19.4153 18.1336L19.2971 18.0653C19.2971 18.0653 19.3039 18.0527 19.3157 18.0331L19.1975 17.9647L19.2151 17.9334L19.0979 17.8651C19.0979 17.8651 19.1045 17.8524 19.1155 17.8338L18.9973 17.7655C18.9973 17.7655 19.0042 17.7529 19.0159 17.7332L18.8977 17.6649L18.9153 17.6336L18.7971 17.5653C18.7971 17.5653 18.8039 17.5527 18.8157 17.5331L18.6975 17.4647L18.7151 17.4334L18.5969 17.3651C18.6122 17.344 20.983 13.3333 21.2102 12.9569C21.3702 12.6915 21.4308 12.6216 21.6106 12.4774C21.6124 12.476 21.6147 12.4749 21.6165 12.4735C21.6072 12.474 21.5985 12.4851 21.5901 12.4832C21.6078 12.4703 22.0091 12.178 22.3675 12.1248C22.5231 12.1197 25.718 12.1024 25.718 12.1024C26.0459 12.0977 26.3492 12.1011 26.4134 12.1102Z" fill="url(#paint3_linear_8_254)"/>
<path d="M25.6178 12.0021C25.6178 12.0021 22.4206 12.0194 22.2673 12.0246C21.9008 12.0789 21.4895 12.3837 21.4895 12.3837C21.4988 12.3864 21.5084 12.3709 21.5188 12.373C21.8012 12.2043 22.2436 12.1712 22.5201 12.4501L23.1272 13.5012L24.1685 15.3048L25.4822 17.5797C24.8888 17.9185 23.7508 18.5791 23.7508 18.5791L29.2113 20.0421L30.6762 14.5845C30.6762 14.5845 28.9427 15.5788 28.9439 15.581L27.1364 12.451C26.9337 12.1652 26.5999 12.0576 26.3127 12.0099C26.2486 12.0008 25.9457 11.9974 25.6178 12.0021ZM19.6186 19.3687L14.1591 20.8297C14.1591 20.8297 15.8882 21.8332 15.8894 21.831L14.082 24.9609C13.9358 25.2795 14.0099 25.6224 14.1122 25.8949C14.1364 25.955 14.2848 26.2194 14.4528 26.501C14.4528 26.501 16.066 29.2607 16.1471 29.3908C16.3774 29.6811 16.8469 29.8856 16.8469 29.8856C16.8445 29.8763 16.8269 29.8762 16.8234 29.8661C16.5362 29.7059 16.2859 29.3384 16.3891 28.9594L16.9962 27.9083L18.0375 26.1048L19.3512 23.8298C19.9412 24.1743 21.0816 24.8292 21.0816 24.8292L19.6186 19.3687ZM27.4917 23.9898L23.4941 27.9874L27.4887 31.9849C27.4887 31.9849 27.4942 29.9862 27.4917 29.9862H31.1057C31.4546 29.9535 31.7142 29.7182 31.8991 29.4933C31.9391 29.4423 32.0945 29.1814 32.2544 28.895C32.2544 28.895 33.8374 26.118 33.9096 25.9828C34.0458 25.6382 33.9877 25.1298 33.9877 25.1298C33.9808 25.1364 33.9898 25.152 33.9828 25.16C33.9877 25.4889 33.7946 25.8886 33.4148 25.9886H32.2007H30.118H27.4917C27.495 25.3054 27.4917 23.9898 27.4917 23.9898Z" fill="url(#paint4_linear_8_254)"/>
<path d="M18.4994 17.2639L21.883 19.2247C21.8924 19.2181 22.1928 18.7129 22.5476 18.0983C22.9029 17.4853 23.4154 16.6061 23.6815 16.1466L23.6832 16.1456L24.1685 15.3052L22.5203 12.4503C22.2412 12.1689 21.7953 12.1551 21.51 12.3776C21.3302 12.5218 21.2703 12.591 21.1103 12.8565C20.8841 13.2311 18.5016 17.2626 18.4972 17.2651" fill="url(#paint5_linear_8_254)"/>
<path d="M31.1699 20.0498L27.8665 22.0495C27.8675 22.061 28.1548 22.5737 28.5096 23.1883C28.8628 23.8025 29.368 24.6859 29.6329 25.1461V25.1481L30.1181 25.9886H33.4145C33.7978 25.8877 34.0327 25.5084 33.9827 25.1501C33.9477 24.9223 33.9177 24.8358 33.7678 24.5645C33.5565 24.1812 31.1699 20.0523 31.1699 20.0473" fill="url(#paint6_linear_8_254)"/>
<path d="M22.4937 29.9849L22.4947 25.9886C22.4947 25.9886 19.4408 25.9878 18.0377 25.9886L16.3895 28.9594C16.2853 29.3418 16.4963 29.7348 16.8316 29.8707C17.0464 29.9543 17.1363 29.9716 17.4462 29.9774C17.8838 29.986 22.4915 29.9837 22.4958 29.9862" fill="url(#paint7_linear_8_254)"/>
<path opacity="0.2" d="M18.8691 16.6389C18.7854 16.78 18.4972 17.2655 18.4972 17.2655L18.4992 17.2635L21.8828 19.2242C21.8881 19.2205 22.1086 18.8416 22.2547 18.5938L18.8691 16.6389ZM19.6186 19.3687L14.1591 20.8297C14.1591 20.8297 15.8882 21.8332 15.8894 21.831L15.8846 21.8398L19.3463 23.8386L19.3512 23.8298C19.9412 24.1743 21.0816 24.8292 21.0816 24.8292L19.6186 19.3687ZM28.049 21.9394L27.8664 22.0496C27.8674 22.0611 28.1548 22.574 28.5096 23.1886C28.8629 23.8027 29.3681 24.6861 29.6329 25.1464V25.1483L30.118 25.9886H27.4917C27.495 25.3054 27.4917 23.9898 27.4917 23.9898L24.6067 26.8748L29.995 29.9862H31.1057C31.4546 29.9535 31.7142 29.7182 31.8991 29.4933C31.9391 29.4423 32.0945 29.1814 32.2544 28.895C32.2544 28.895 33.8374 26.118 33.9096 25.9828C33.9902 25.7788 34.0006 25.5521 33.9974 25.3728L28.049 21.9394Z" fill="url(#paint8_linear_8_254)"/>
<defs>
<linearGradient id="paint0_linear_8_254" x1="1.33442" y1="43.9984" x2="1.33442" y2="3.99856" gradientUnits="userSpaceOnUse">
<stop stop-color="#7F8C8D"/>
<stop offset="1" stop-color="#AFB0B3"/>
</linearGradient>
<linearGradient id="paint1_linear_8_254" x1="-595.717" y1="-719.149" x2="-580.003" y2="-703.566" gradientUnits="userSpaceOnUse">
<stop stop-color="#292C2F"/>
<stop offset="1" stop-opacity="0"/>
</linearGradient>
<linearGradient id="paint2_linear_8_254" x1="1.33259" y1="36.8579" x2="1.33259" y2="6.858" gradientUnits="userSpaceOnUse">
<stop stop-color="#EEF1F2"/>
<stop offset="1" stop-color="#F9FAFB"/>
</linearGradient>
<linearGradient id="paint3_linear_8_254" x1="24.5" y1="23" x2="34.5" y2="33" gradientUnits="userSpaceOnUse">
<stop stop-opacity="0.2"/>
<stop offset="1" stop-opacity="0"/>
</linearGradient>
<linearGradient id="paint4_linear_8_254" x1="22.5441" y1="12.0869" x2="29.4685" y2="31.8625" gradientUnits="userSpaceOnUse">
<stop stop-color="#44484C"/>
<stop offset="1" stop-color="#1D1E1E"/>
</linearGradient>
<linearGradient id="paint5_linear_8_254" x1="134.887" y1="194.194" x2="117.144" y2="204.437" gradientUnits="userSpaceOnUse">
<stop stop-color="#4EA979"/>
<stop offset="1" stop-color="#5EB085"/>
</linearGradient>
<linearGradient id="paint6_linear_8_254" x1="-180.163" y1="32.4292" x2="-180.163" y2="11.9418" gradientUnits="userSpaceOnUse">
<stop stop-color="#4EA979"/>
<stop offset="1" stop-color="#5EB085"/>
</linearGradient>
<linearGradient id="paint7_linear_8_254" x1="117.601" y1="-159.225" x2="135.343" y2="-148.981" gradientUnits="userSpaceOnUse">
<stop stop-color="#4EA979"/>
<stop offset="1" stop-color="#5EB085"/>
</linearGradient>
<linearGradient id="paint8_linear_8_254" x1="15.8333" y1="17.2505" x2="33.1002" y2="27.2194" gradientUnits="userSpaceOnUse">
<stop/>
<stop offset="1" stop-opacity="0"/>
</linearGradient>
</defs>
</svg>
