<svg width="48" height="48" viewBox="0 0 48 48" fill="none" xmlns="http://www.w3.org/2000/svg">
<circle cx="24" cy="24" r="20" fill="url(#paint0_linear_6_2)"/>
<path d="M22.3252 14.7695C24.4175 14.7696 26.3733 15.5914 27.7627 17.0186L28.7539 18.0098C28.7879 18.0432 28.8222 18.0762 28.8555 18.1104C28.894 18.1483 28.932 18.1868 28.9697 18.2256C28.9797 18.2355 28.9901 18.2449 29 18.2549C29.5896 18.101 30.18 18.1025 30.7695 18.1025C31.6581 18.1025 32.547 18.1032 33.4355 18.3252C34.9909 18.7696 36.5467 19.4365 37.8799 20.3252C37.8416 20.3125 37.8029 20.3014 37.7646 20.2891C37.8365 20.3349 37.9098 20.3787 37.9805 20.4258C37.9423 20.4131 37.9034 20.402 37.8652 20.3896C37.9368 20.4353 38.0097 20.4785 38.0801 20.5254C38.0415 20.5125 38.0024 20.5017 37.9639 20.4893C38.0359 20.5352 38.1098 20.5788 38.1807 20.626C38.1431 20.6135 38.1049 20.602 38.0674 20.5898C38.1385 20.6352 38.2104 20.679 38.2803 20.7256C38.2423 20.7129 38.204 20.7017 38.166 20.6895C38.2375 20.7351 38.3106 20.7783 38.3809 20.8252C38.3423 20.8124 38.3032 20.8006 38.2646 20.7881C38.3367 20.834 38.4096 20.8786 38.4805 20.9258C38.4423 20.913 38.4034 20.902 38.3652 20.8896C38.4368 20.9353 38.5097 20.9785 38.5801 21.0254C38.5418 21.0126 38.5031 21.0016 38.4648 20.9893C38.5367 21.0351 38.6101 21.0789 38.6807 21.126C38.6431 21.1135 38.6049 21.102 38.5674 21.0898C38.6385 21.1352 38.7104 21.179 38.7803 21.2256C38.7423 21.2129 38.704 21.2017 38.666 21.1895C38.7375 21.2351 38.8105 21.2783 38.8809 21.3252C38.8423 21.3123 38.8032 21.3006 38.7646 21.2881C38.8367 21.3341 38.9096 21.3786 38.9805 21.4258C38.9423 21.413 38.9035 21.402 38.8652 21.3896C38.9368 21.4353 39.0097 21.4785 39.0801 21.5254C39.0418 21.5126 39.0031 21.5016 38.9648 21.4893C39.0367 21.5351 39.11 21.5789 39.1807 21.626C39.1431 21.6135 39.1049 21.602 39.0674 21.5898C39.1385 21.6352 39.2104 21.679 39.2803 21.7256C39.2423 21.7129 39.204 21.7017 39.166 21.6895C39.2375 21.7351 39.3105 21.7783 39.3809 21.8252C39.3423 21.8123 39.3032 21.8006 39.2646 21.7881C39.3367 21.8341 39.4096 21.8786 39.4805 21.9258C39.4422 21.913 39.4035 21.902 39.3652 21.8896C39.4368 21.9353 39.5097 21.9785 39.5801 22.0254C39.5418 22.0126 39.5031 22.0016 39.4648 21.9893C39.5367 22.0351 39.61 22.0789 39.6807 22.126C39.6431 22.1135 39.6049 22.102 39.5674 22.0898C39.6385 22.1352 39.7104 22.179 39.7803 22.2256C39.7423 22.2129 39.704 22.2017 39.666 22.1895C39.7375 22.2351 39.8105 22.2783 39.8809 22.3252C39.8423 22.3123 39.8032 22.3006 39.7646 22.2881C39.8367 22.3341 39.9096 22.3786 39.9805 22.4258C39.9422 22.413 39.9035 22.402 39.8652 22.3896C39.9368 22.4353 40.0097 22.4785 40.0801 22.5254C40.0418 22.5126 40.0031 22.5016 39.9648 22.4893C40.0367 22.5351 40.11 22.5789 40.1807 22.626C40.1431 22.6135 40.105 22.602 40.0674 22.5898C40.1385 22.6352 40.2104 22.679 40.2803 22.7256C40.2423 22.7129 40.204 22.7017 40.166 22.6895C40.2375 22.7351 40.3105 22.7783 40.3809 22.8252C40.3423 22.8123 40.3032 22.8006 40.2646 22.7881C40.3367 22.8341 40.4096 22.8785 40.4805 22.9258C40.4422 22.913 40.4035 22.902 40.3652 22.8896C40.4368 22.9353 40.5097 22.9785 40.5801 23.0254C40.5418 23.0126 40.5031 23.0016 40.4648 22.9893C40.5367 23.0351 40.61 23.0789 40.6807 23.126C40.6431 23.1135 40.605 23.102 40.5674 23.0898C40.6385 23.1352 40.7104 23.179 40.7803 23.2256C40.7423 23.2129 40.704 23.2017 40.666 23.1895C40.7376 23.2351 40.8105 23.2783 40.8809 23.3252C40.8423 23.3123 40.8032 23.3006 40.7646 23.2881C40.8367 23.3341 40.9096 23.3785 40.9805 23.4258C40.9422 23.413 40.9035 23.402 40.8652 23.3896C40.9368 23.4353 41.0097 23.4785 41.0801 23.5254C41.0418 23.5126 41.0031 23.5016 40.9648 23.4893C41.0367 23.5351 41.11 23.5789 41.1807 23.626C41.1431 23.6135 41.105 23.602 41.0674 23.5898C41.1385 23.6352 41.2104 23.679 41.2803 23.7256C41.2423 23.7129 41.204 23.7017 41.166 23.6895C41.2376 23.7351 41.3105 23.7783 41.3809 23.8252C41.3423 23.8123 41.3032 23.8006 41.2646 23.7881C41.3367 23.8341 41.4096 23.8785 41.4805 23.9258C41.4425 23.9131 41.4042 23.9019 41.3662 23.8896C41.4377 23.9353 41.5108 23.9785 41.5811 24.0254C41.5425 24.0126 41.5034 24.0007 41.4648 23.9883C41.5369 24.0342 41.6099 24.0788 41.6807 24.126C41.6428 24.1133 41.6043 24.1021 41.5664 24.0898C41.6377 24.1354 41.7102 24.1788 41.7803 24.2256C41.7426 24.213 41.7047 24.2016 41.667 24.1895C41.7383 24.235 41.8107 24.2785 41.8809 24.3252C41.8423 24.3123 41.8032 24.3006 41.7646 24.2881C41.8367 24.3341 41.9096 24.3785 41.9805 24.4258C41.9425 24.4131 41.9042 24.4019 41.8662 24.3896C41.9377 24.4353 42.0108 24.4785 42.0811 24.5254C42.0425 24.5126 42.0034 24.5007 41.9648 24.4883C42.0369 24.5342 42.1099 24.5788 42.1807 24.626C42.1428 24.6133 42.1043 24.6021 42.0664 24.5898C42.1377 24.6354 42.2102 24.6788 42.2803 24.7256C42.2426 24.713 42.2047 24.7016 42.167 24.6895C42.2383 24.735 42.3107 24.7785 42.3809 24.8252C42.3423 24.8123 42.3033 24.8006 42.2646 24.7881C42.3367 24.8341 42.4096 24.8785 42.4805 24.9258C42.4425 24.9131 42.4042 24.9019 42.3662 24.8896C42.4377 24.9353 42.5108 24.9785 42.5811 25.0254C42.5425 25.0126 42.5034 25.0008 42.4648 24.9883C42.5369 25.0342 42.6099 25.0788 42.6807 25.126C42.6428 25.1133 42.6043 25.1021 42.5664 25.0898C42.6377 25.1354 42.7102 25.1788 42.7803 25.2256C42.7426 25.213 42.7047 25.2016 42.667 25.1895C42.7383 25.235 42.8107 25.2785 42.8809 25.3252C42.8423 25.3123 42.8033 25.3006 42.7646 25.2881C42.8367 25.3341 42.9096 25.3785 42.9805 25.4258C42.9425 25.4131 42.9042 25.4019 42.8662 25.3896C42.9377 25.4353 43.0108 25.4785 43.0811 25.5254C43.0425 25.5125 43.0034 25.5008 42.9648 25.4883C43.0369 25.5342 43.1099 25.5788 43.1807 25.626C43.1428 25.6133 43.1043 25.6021 43.0664 25.5898C43.1377 25.6354 43.2102 25.6788 43.2803 25.7256C43.2426 25.713 43.2047 25.7016 43.167 25.6895C43.2383 25.735 43.3107 25.7785 43.3809 25.8252C43.3422 25.8123 43.3033 25.8006 43.2646 25.7881C43.3367 25.8341 43.4096 25.8785 43.4805 25.9258C43.4425 25.9131 43.4042 25.9019 43.3662 25.8896C43.4377 25.9353 43.5108 25.9785 43.5811 26.0254C43.5425 26.0125 43.5034 26.0008 43.4648 25.9883C43.5369 26.0342 43.6098 26.0788 43.6807 26.126C43.6427 26.1133 43.6043 26.1021 43.5664 26.0898C43.6377 26.1354 43.7102 26.1788 43.7803 26.2256C43.7426 26.213 43.7047 26.2016 43.667 26.1895C43.733 26.2316 43.8001 26.2716 43.8652 26.3145L43.8643 26.3193C43.8311 26.3086 43.7977 26.2988 43.7646 26.2881C43.7969 26.3086 43.829 26.3293 43.8613 26.3496C42.6982 36.288 34.2507 44 24 44C21.8648 44 19.8083 43.6636 17.8789 43.0439C17.876 43.041 17.873 43.0381 17.8701 43.0352C17.8325 42.9979 17.796 42.9595 17.7588 42.9219C17.7343 42.8975 17.7099 42.8731 17.6855 42.8486C17.6468 42.8103 17.6078 42.7721 17.5693 42.7334C17.5363 42.7006 17.5034 42.6678 17.4707 42.6348C17.4372 42.6015 17.4033 42.5687 17.3701 42.5352C17.3366 42.5019 17.3037 42.4681 17.2705 42.4346L16.9707 42.1348C16.9372 42.1015 16.9033 42.0687 16.8701 42.0352C16.8366 42.0019 16.8037 41.9681 16.7705 41.9346L16.4727 41.6367C16.4385 41.6028 16.404 41.5693 16.3701 41.5352C16.336 41.5013 16.3024 41.4668 16.2686 41.4326L15.9727 41.1367C15.9385 41.1028 15.904 41.0693 15.8701 41.0352C15.836 41.0013 15.8024 40.9668 15.7686 40.9326C15.7357 40.9 15.7025 40.8678 15.6699 40.835C15.6361 40.8014 15.6029 40.7672 15.5693 40.7334C15.537 40.7013 15.5048 40.6691 15.4727 40.6367C15.4385 40.6028 15.404 40.5693 15.3701 40.5352C15.336 40.5013 15.3024 40.4668 15.2686 40.4326C15.2357 40.4 15.2025 40.3678 15.1699 40.335C15.1366 40.3019 15.1034 40.2687 15.0703 40.2354C15.0375 40.2028 15.0052 40.1696 14.9727 40.1367C14.9385 40.1028 14.904 40.0693 14.8701 40.0352C14.836 40.0013 14.8024 39.9668 14.7686 39.9326C14.7357 39.9 14.7025 39.8678 14.6699 39.835C14.6366 39.8019 14.6034 39.7687 14.5703 39.7354C14.5375 39.7028 14.5052 39.6696 14.4727 39.6367C14.4385 39.6028 14.404 39.5693 14.3701 39.5352C14.336 39.5013 14.3024 39.4668 14.2686 39.4326C14.2357 39.4 14.2025 39.3678 14.1699 39.335C14.1407 39.3059 14.1121 39.2763 14.083 39.2471C14.0418 39.2063 14.0008 39.1652 13.96 39.124C13.9301 39.0943 13.8998 39.0651 13.8701 39.0352C13.836 39.0013 13.8024 38.9668 13.7686 38.9326C13.7357 38.9 13.7025 38.8678 13.6699 38.835C13.6407 38.8059 13.6121 38.7763 13.583 38.7471C13.5418 38.7063 13.5008 38.6652 13.46 38.624C13.4301 38.5943 13.3998 38.5651 13.3701 38.5352C13.3366 38.5019 13.3037 38.4681 13.2705 38.4346C13.237 38.4013 13.2032 38.3685 13.1699 38.335C13.1407 38.3059 13.1121 38.2763 13.083 38.2471C13.0418 38.2063 13.0008 38.1652 12.96 38.124C12.9301 38.0943 12.8998 38.0651 12.8701 38.0352C12.8366 38.0019 12.8037 37.9681 12.7705 37.9346C12.737 37.9013 12.7032 37.8685 12.6699 37.835C12.6407 37.8059 12.6121 37.7763 12.583 37.7471C12.5411 37.7056 12.4995 37.6639 12.458 37.6221C12.4288 37.593 12.3991 37.5644 12.3701 37.5352C12.3366 37.5019 12.3037 37.4681 12.2705 37.4346C12.237 37.4013 12.2032 37.3685 12.1699 37.335C12.1407 37.3059 12.1121 37.2763 12.083 37.2471C12.0411 37.2056 11.9995 37.1639 11.958 37.1221C11.9288 37.093 11.8991 37.0644 11.8701 37.0352C11.8366 37.0019 11.8037 36.9681 11.7705 36.9346C11.737 36.9013 11.7032 36.8685 11.6699 36.835C11.6407 36.8059 11.6121 36.7763 11.583 36.7471C9.24531 34.4325 7.55429 31.4657 6.76953 28.1025L14.5469 22.9912V22.3252C14.5471 18.3257 17.4361 15.2143 21.4355 14.7695H22.3252Z" fill="url(#paint1_linear_6_2)"/>
<path d="M22.2227 14.667C24.8892 14.6671 27.3337 16.0006 28.667 18.2227C29.3336 18.0005 30.0004 18 30.667 18C31.5557 18 32.4443 18.0005 33.333 18.2227C34.8885 18.6671 36.444 19.3338 37.7773 20.2227C36.4441 19.7783 35.1111 19.5557 33.5557 19.5557C30.889 19.5557 28.6669 20.4448 27.1113 22.667C25.5559 24.6669 24.6671 27.1109 24.667 29.7773C24.667 33.1107 23.7773 36.2224 21.7773 39.1113C21.1109 40 20.6665 40.6665 20 41.333C13.3334 39.7774 8.22256 34.6666 6.66699 28L14.4443 22.8887V22.2227C14.4443 18.2228 17.3332 15.1116 21.333 14.667H22.2227ZM25.1113 17.1113C24.4977 17.1113 24 17.609 24 18.2227C24.0002 18.8361 24.4978 19.333 25.1113 19.333C25.7247 19.3329 26.2224 18.836 26.2227 18.2227C26.2227 17.6091 25.7249 17.1114 25.1113 17.1113Z" fill="url(#paint2_linear_6_2)"/>
<path d="M43.9932 23.4834C43.9975 23.6551 44 23.8273 44 24C44 35.0457 35.0457 44 24 44C12.9543 44 4 35.0457 4 24C4 23.8273 4.00248 23.6551 4.00684 23.4834C4.26356 34.3058 13.1159 43 24 43C34.873 43 43.7192 34.3235 43.9932 23.5166V23.4834Z" fill="black" fill-opacity="0.1"/>
<defs>
<linearGradient id="paint0_linear_6_2" x1="-429.967" y1="44" x2="-429.967" y2="4" gradientUnits="userSpaceOnUse">
<stop stop-color="#2A2C2F"/>
<stop offset="1" stop-color="#424649"/>
</linearGradient>
<linearGradient id="paint1_linear_6_2" x1="18" y1="20" x2="38" y2="40" gradientUnits="userSpaceOnUse">
<stop stop-opacity="0.2"/>
<stop offset="1" stop-opacity="0"/>
</linearGradient>
<linearGradient id="paint2_linear_6_2" x1="22.2222" y1="14.667" x2="22.2222" y2="41.333" gradientUnits="userSpaceOnUse">
<stop stop-color="white"/>
<stop offset="1" stop-color="#B3B5B6"/>
</linearGradient>
</defs>
</svg>
