<svg width="48" height="48" viewBox="0 0 48 48" fill="none" xmlns="http://www.w3.org/2000/svg">
<circle cx="24" cy="24" r="20" fill="url(#paint0_linear_3_85)"/>
<path d="M43.8447 26.4941C42.6356 36.213 34.4547 43.7662 24.4629 43.9932L11.1104 30.6396L16.5898 26.9004V19.4199H27.5498L33.0303 15.6797L43.8447 26.4941Z" fill="url(#paint1_linear_3_85)"/>
<path d="M27.6601 14C27.4061 14.4578 27.1779 14.9313 26.9705 15.4154C25.0001 15.1155 22.9935 15.1155 21.0179 15.4154C20.8157 14.9313 20.5824 14.4578 20.3283 14C18.4772 14.321 16.6727 14.884 14.9616 15.6785C11.5705 20.7771 10.6528 25.7443 11.1091 30.643C13.095 32.1321 15.3194 33.2686 17.6891 33.9947C18.2231 33.2686 18.695 32.4951 19.0994 31.6901C18.332 31.4007 17.5905 31.0376 16.8801 30.6167C17.0668 30.4799 17.2483 30.3378 17.4246 30.201C21.5883 32.1899 26.4105 32.1899 30.5793 30.201C30.7556 30.3484 30.9371 30.4904 31.1238 30.6167C30.4134 31.0429 29.6719 31.4007 28.8993 31.6954C29.3038 32.5004 29.7756 33.2739 30.3097 34C32.6794 33.2739 34.9038 32.1426 36.8897 30.6535C37.429 24.9708 35.9667 20.0458 33.0267 15.6838C31.3209 14.8892 29.5164 14.3262 27.6653 14.0105L27.6601 14ZM19.6801 27.628C18.3994 27.628 17.3364 26.4494 17.3364 24.9919C17.3364 23.5344 18.3579 22.3504 19.6749 22.3504C20.992 22.3504 22.0393 23.5396 22.0187 24.9919C21.9979 26.4441 20.9868 27.628 19.6801 27.628ZM28.3186 27.628C27.0327 27.628 25.9801 26.4494 25.9801 24.9919C25.9801 23.5344 27.0016 22.3504 28.3186 22.3504C29.6356 22.3504 30.6779 23.5396 30.6571 24.9919C30.6364 26.4441 29.6253 27.628 28.3186 27.628Z" fill="url(#paint2_linear_3_85)"/>
<path d="M43.9932 23.4834C43.9975 23.6551 44 23.8273 44 24C44 35.0457 35.0457 44 24 44C12.9543 44 4 35.0457 4 24C4 23.8273 4.00248 23.6551 4.00684 23.4834C4.26356 34.3058 13.1159 43 24 43C34.873 43 43.7192 34.3235 43.9932 23.5166V23.4834Z" fill="black" fill-opacity="0.1"/>
<defs>
<linearGradient id="paint0_linear_3_85" x1="24" y1="4" x2="24" y2="44" gradientUnits="userSpaceOnUse">
<stop stop-color="#707CF4"/>
<stop offset="0.5" stop-color="#5765F2"/>
<stop offset="1" stop-color="#4E5BDA"/>
</linearGradient>
<linearGradient id="paint1_linear_3_85" x1="23.5" y1="23.5" x2="36" y2="36" gradientUnits="userSpaceOnUse">
<stop stop-opacity="0.2"/>
<stop offset="1" stop-opacity="0"/>
</linearGradient>
<linearGradient id="paint2_linear_3_85" x1="24" y1="14" x2="24" y2="34" gradientUnits="userSpaceOnUse">
<stop stop-color="#E1E3FF"/>
<stop offset="1" stop-color="#D7DBFC"/>
</linearGradient>
</defs>
</svg>
