<svg width="48" height="48" viewBox="0 0 48 48" fill="none" xmlns="http://www.w3.org/2000/svg">
<path fill-rule="evenodd" clip-rule="evenodd" d="M14.2765 36.1087C14.347 36.4373 14.5265 36.7324 14.7857 36.9463L22.921 43.6588C23.4674 44.1098 24.2556 44.1141 24.8071 43.6694L33.1384 36.9519C33.4077 36.7348 33.5933 36.4308 33.6631 36.0919L38.6977 11.6906C38.8398 11.0019 38.4817 10.3075 37.8383 10.0238L25.1534 4.43179L24.4617 4.12677C24.0782 3.95774 23.6412 3.95774 23.2578 4.12677L22.5661 4.43179L9.8903 10.0198C9.24273 10.3053 8.88481 11.0064 9.03342 11.6983L14.2765 36.1087Z" fill="url(#paint0_linear_9_1526)"/>
<path d="M22.6914 33.499L22.7559 33.5918L22.7881 33.5977L22.8535 33.6914L22.8838 33.6973L22.9492 33.791L22.9805 33.7969L23.0449 33.8896L23.0762 33.8955L23.1416 33.9893L23.1729 33.9951L23.2373 34.0879L23.2695 34.0938L23.335 34.1875L23.3652 34.1934L23.4307 34.2871L23.4619 34.293L23.5264 34.3857L23.5576 34.3916L23.623 34.4854L23.6543 34.4912L23.7197 34.585L23.751 34.5908L23.8154 34.6836L23.8467 34.6895L23.9121 34.7832L23.9434 34.7891L24.0088 34.8828L24.0391 34.8887L24.1035 34.9814L24.1357 34.9873L24.2012 35.0811L24.2324 35.0869L24.2969 35.1797L24.3281 35.1855L24.3936 35.2793L24.4248 35.2852L24.4902 35.3789L24.5205 35.3848L24.585 35.4775L24.6172 35.4834L24.6826 35.5771L24.7139 35.583L24.7793 35.6768L24.8096 35.6826L24.874 35.7754L24.9062 35.7812L24.9717 35.875L25.002 35.8809L25.0674 35.9746L25.0986 35.9805L25.1631 36.0732L25.1943 36.0791L25.2598 36.1729L25.291 36.1787L25.3555 36.2715L25.3877 36.2773L25.4531 36.3711L25.4834 36.377L25.5488 36.4707L25.5801 36.4766L25.6445 36.5693L25.6758 36.5752L25.7412 36.6689L25.7725 36.6748L25.8379 36.7686L25.8691 36.7744L25.9336 36.8672L25.9648 36.873L26.0303 36.9668L26.0615 36.9727L26.127 37.0664L26.1572 37.0723L26.2217 37.165L26.2539 37.1709L26.3193 37.2646L26.3506 37.2705L26.416 37.3643L26.4463 37.3701L26.5107 37.4629L26.543 37.4688L26.6084 37.5625L26.6387 37.5684L26.7031 37.6611L26.7354 37.667L26.8008 37.7607L26.832 37.7666L26.8975 37.8604L26.9277 37.8662L26.9922 37.959L27.0244 37.9648L27.0898 38.0586L27.1201 38.0645L27.1855 38.1582L27.2168 38.1641L27.2812 38.2568L27.3135 38.2627L27.3789 38.3564L27.4092 38.3623L27.4746 38.4561L27.5059 38.4619L27.5703 38.5547L27.6016 38.5605L27.667 38.6543L27.6982 38.6602L27.7627 38.7529L27.7949 38.7588L27.8604 38.8525L27.8906 38.8584L27.9561 38.9521L27.9873 38.958L28.0518 39.0508L28.083 39.0566L28.1484 39.1504L28.1797 39.1562L28.2451 39.25L28.2754 39.2559L28.3398 39.3486L28.3721 39.3545L28.4375 39.4482L28.4688 39.4541L28.5342 39.5479L28.5645 39.5537L28.6289 39.6465L28.6611 39.6523L28.7266 39.7461L28.7568 39.752L28.8213 39.8447L28.8535 39.8506L28.9189 39.9443L28.9502 39.9502L29.0156 40.0439L29.0459 40.0498L29.1104 40.1426L29.1426 40.1484L29.1533 40.1641L25.1455 43.3955L25.1387 43.3818L25.1016 43.3887L25.042 43.2822L25.0049 43.2891L24.9463 43.1836L24.9092 43.1904L24.8496 43.084L24.8125 43.0908L24.7549 42.9854L24.7158 42.9922L24.6572 42.8857L24.6201 42.8926L24.5605 42.7861L24.5234 42.793L24.4658 42.6875L24.4277 42.6943L24.3682 42.5879L24.3311 42.5947L24.2725 42.4883L24.2344 42.4951L24.1758 42.3896L24.1387 42.3965L24.0791 42.29L24.042 42.2969L23.9834 42.1904L23.9463 42.1973L23.9453 42.1982L23.8867 42.0918L23.8496 42.0986L23.791 41.9922L23.7529 41.999L23.6943 41.8926L23.6572 41.8994L23.5986 41.7939L23.5605 41.8008L23.502 41.6943L23.4648 41.7012L23.4062 41.5957L23.3682 41.6025L23.3096 41.4961L23.2715 41.5029L23.2129 41.3965L23.1758 41.4033L23.1182 41.2979L23.0791 41.3047L23.0205 41.1982L22.9834 41.2051L22.9238 41.0986L22.8867 41.1055L22.8281 41L22.791 41.0068L22.7314 40.9004L22.6943 40.9072L22.6357 40.8008L22.5977 40.8076L22.5391 40.7021L22.502 40.709L22.4424 40.6025L22.4053 40.6094L22.3477 40.5039L22.3096 40.5107L22.25 40.4043L22.2129 40.4111L22.1543 40.3047L22.1162 40.3115L22.0586 40.2061L22.0205 40.2129L21.9609 40.1064L21.9238 40.1133L21.8652 40.0068L21.8281 40.0137L21.8271 40.0146L21.7686 39.9082L21.7314 39.915L21.6729 39.8086L21.6348 39.8154L21.5762 39.709L21.5391 39.7158L21.5381 39.7168L21.4795 39.6104L21.4424 39.6172L21.3838 39.5107L21.3467 39.5176L21.2881 39.4121L21.25 39.4189L21.1914 39.3125L21.1533 39.3193L21.0947 39.2129L21.0576 39.2197L20.999 39.1143L20.9609 39.1211L20.9023 39.0146L20.8652 39.0215L20.8057 38.915L20.7686 38.9219L20.71 38.8164L20.6719 38.8232L20.6133 38.7168L20.5762 38.7236L20.5176 38.6172L20.4795 38.624L20.4209 38.5186L20.3838 38.5254L20.3242 38.4189L20.2871 38.4258L20.2295 38.3203L20.1904 38.3271L20.1318 38.2207L20.0947 38.2275L20.0361 38.1211L19.998 38.1279L19.9404 38.0225L19.9023 38.0293L19.8428 37.9229L19.8057 37.9297L19.7471 37.8232L19.71 37.8301L19.709 37.8311L19.6504 37.7246L19.6133 37.7314L19.5547 37.625L19.5166 37.6318L19.458 37.5254L19.4209 37.5322L19.4199 37.5332L19.3613 37.4268L19.3242 37.4336L19.2656 37.3271L19.2285 37.334L19.1699 37.2285L19.1318 37.2354L19.0732 37.1289L19.0352 37.1357L18.9766 37.0293L18.9395 37.0361L18.8809 36.9307L18.8428 36.9375L18.7842 36.8311L18.7471 36.8379L18.6875 36.7314L18.6504 36.7383L18.5918 36.6328L18.5537 36.6396L17.5 34.71L18.5537 32.7812L22.6914 33.499Z" fill="url(#paint1_linear_9_1526)"/>
<path d="M23.9512 7.75195L23.9707 7.71973L24.0469 7.85254L24.0674 7.81836L24.1436 7.95117L24.1641 7.91797L24.2402 8.0498L24.2598 8.0166L24.3359 8.14941L24.3564 8.11621L24.4326 8.24805L24.4521 8.21582L24.5283 8.34863L24.5488 8.31445L24.625 8.44727L24.6455 8.41406L24.7217 8.5459L24.7412 8.51367L24.8174 8.64648L24.8379 8.6123L24.9141 8.74414L24.9336 8.71191L25.0098 8.84473L25.0303 8.81152L25.1064 8.94434L25.127 8.91016L25.2031 9.04199L25.2227 9.00977L25.2988 9.14258L25.3193 9.1084L25.3955 9.24023L25.415 9.20801L25.4912 9.34082L25.5117 9.30762L25.5879 9.43945L25.6074 9.40625L25.6836 9.53906L25.7041 9.50586L25.7803 9.63867L25.8008 9.60547L25.877 9.7373L25.8965 9.7041L25.9727 9.83691L25.9932 9.80371L26.0693 9.93555L26.0889 9.90332L26.165 10.0361L26.1855 10.002L26.2617 10.1348L26.2822 10.1016L26.3584 10.2334L26.3779 10.2002L26.4541 10.333L26.4746 10.2998L26.5508 10.4316L26.5703 10.3994L26.6465 10.5322L26.667 10.498L26.7432 10.6309L26.7637 10.5977L26.8398 10.7295L26.8594 10.6973L26.9355 10.8301L26.9561 10.7959L27.0322 10.9277L27.0518 10.8955L27.1279 11.0283L27.1484 10.9951L27.2246 11.1279L27.2451 11.0938L27.3213 11.2256L27.3408 11.1934L27.417 11.3262L27.4375 11.292L27.5137 11.4238L27.5332 11.3916L27.6094 11.5244L27.6299 11.4912L27.7061 11.624L27.7266 11.5898L27.8027 11.7217L27.8223 11.6895L27.8984 11.8223L27.9189 11.7891L27.9951 11.9209L28.0146 11.8877L28.0908 12.0205L28.1113 11.9873L28.1875 12.1201L28.208 12.0869L28.2842 12.2188L28.3037 12.1855L28.3799 12.3184L28.4004 12.2852L28.4766 12.417L28.4961 12.3838L28.5723 12.5166L28.5928 12.4834L28.6689 12.6152L28.6885 12.583L28.7646 12.7158L28.7852 12.6816L28.8613 12.8145L28.8818 12.7812L28.958 12.9131L28.9775 12.8809L29.0537 13.0137L29.0742 12.9795L29.1504 13.1113L29.1699 13.0791L29.2461 13.2119L29.2666 13.1787L29.3428 13.3115L29.3633 13.2773L29.4395 13.4092L29.459 13.377L29.5352 13.5098L29.5557 13.4766L29.6318 13.6084L29.6514 13.5752L29.7275 13.708L29.748 13.6748L29.8242 13.8076L29.8447 13.7734L29.9209 13.9053L29.9404 13.873L30.0166 14.0059L30.0371 13.9727L30.1133 14.1045L30.1328 14.0713L30.209 14.2041L30.2295 14.1709L30.3057 14.3037L30.3262 14.2705L30.4023 14.4023L30.4219 14.3691L30.498 14.502L30.5186 14.4688L30.5947 14.6006L30.6143 14.5684L30.6904 14.7012L30.7109 14.667L30.7871 14.7998L30.8076 14.7666L30.8838 14.8984L30.9033 14.8652L30.9795 14.998L31 14.9648L31.0762 15.0967L31.0957 15.0645L31.1719 15.1973L31.1924 15.1631L31.2686 15.2959L31.2891 15.2627L31.3652 15.3945L31.3848 15.3623L31.4609 15.4951L31.4814 15.4609L31.5576 15.5928L31.5771 15.5605L31.6533 15.6934L31.6738 15.6602L31.75 15.792L31.7695 15.7588L31.8457 15.8916L31.8662 15.8584L31.9424 15.9912L31.9629 15.957L32.0391 16.0889L32.0586 16.0566L32.1348 16.1895L32.1553 16.1562L32.2314 16.2881L32.251 16.2549L32.3271 16.3877L32.3477 16.3545L32.4238 16.4873L32.4443 16.4541L32.5205 16.5859L32.54 16.5527L32.6162 16.6855L32.6367 16.6523L32.7129 16.7842L32.7324 16.752L32.8086 16.8848L32.8291 16.8506L32.9053 16.9834L32.9258 16.9502L33.002 17.082L33.0215 17.0488L33.0977 17.1816L33.1182 17.1484L33.1943 17.2803L33.2139 17.248L33.29 17.3809L33.3105 17.3467L33.3867 17.4795L33.4072 17.4463L33.4834 17.5781L33.5029 17.5459L33.5791 17.6787L33.5996 17.6445L33.6758 17.7764L33.6953 17.7441L33.7715 17.877L33.792 17.8438L33.8682 17.9766L33.8887 17.9424L33.9648 18.0742L33.9844 18.042L34.0605 18.1748L34.0811 18.1406L36.8096 20.8389L33.6631 36.0918C33.5933 36.4307 33.408 36.7351 33.1387 36.9521L29.249 40.0879L29.2061 40.0254L29.1748 40.0205L29.1104 39.9258L29.0781 39.9209L29.0137 39.8262L28.9814 39.8213L28.917 39.7275L28.8857 39.7227L28.8213 39.6279L28.7891 39.623L28.7246 39.5283L28.6934 39.5234L28.6289 39.4297L28.5967 39.4248L28.5322 39.3301L28.5 39.3252L28.4355 39.2305L28.4043 39.2256L28.3398 39.1318L28.3076 39.127L28.2432 39.0322L28.2119 39.0273L28.1475 38.9336L28.1152 38.9287L28.0508 38.834L28.0186 38.8291L27.9541 38.7344L27.9229 38.7295L27.8584 38.6357L27.8262 38.6309L27.7617 38.5361L27.7305 38.5312L27.666 38.4365L27.6338 38.4316L27.5693 38.3379L27.5371 38.333L27.4727 38.2383L27.4414 38.2334L27.377 38.1387L27.3447 38.1338L27.2803 38.04L27.249 38.0352L27.1846 37.9404L27.1523 37.9355L27.0879 37.8418L27.0557 37.8369L26.9912 37.7422L26.96 37.7373L26.8955 37.6426L26.8633 37.6377L26.7988 37.5439L26.7676 37.5391L26.7031 37.4443L26.6709 37.4395L26.6064 37.3447L26.5752 37.3398L26.5107 37.2461L26.4785 37.2412L26.4141 37.1465L26.3818 37.1416L26.3174 37.0469L26.2861 37.042L26.2217 36.9482L26.1895 36.9434L26.125 36.8486L26.0938 36.8438L26.0293 36.75L25.9971 36.7451L25.9326 36.6504L25.9004 36.6455L25.8359 36.5508L25.8047 36.5459L25.7402 36.4521L25.708 36.4473L25.6436 36.3525L25.6123 36.3477L25.5479 36.2529L25.5156 36.248L25.4512 36.1543L25.4189 36.1494L25.3545 36.0547L25.3232 36.0498L25.2588 35.9551L25.2266 35.9502L24.3799 34.71L24.4238 34.6406L24.3838 34.6084L24.3809 34.583L24.2881 34.5088L24.2852 34.4834L24.1914 34.4092L24.1885 34.3857L24.0947 34.3105L24.0918 34.2852L23.999 34.2109L23.9961 34.1855L23.9023 34.1113L23.8994 34.0869L23.8066 34.0127L23.8037 33.9873L23.71 33.9131L23.707 33.8877L23.6143 33.8135L23.6113 33.79L23.5176 33.7148L23.5146 33.6895L23.4209 33.6152L23.418 33.5908L23.3252 33.5166L23.3223 33.4912L23.2285 33.417L23.2256 33.3916L23.1328 33.3174L23.1299 33.2939L23.0361 33.2188L20.8555 12.8467L23.875 7.62012L23.9512 7.75195Z" fill="url(#paint2_linear_9_1526)"/>
<path fill-rule="evenodd" clip-rule="evenodd" d="M26.798 12.7476L23.7785 7.52074L20.7592 12.7476H26.798ZM24.7851 33.1191L26.798 12.7476H20.7592L22.9398 33.1191L23.8624 33.8563L24.7851 33.1191Z" fill="#070A0B"/>
<path fill-rule="evenodd" clip-rule="evenodd" d="M29.2678 32.6821L25.1305 33.3994L24.2832 34.6111L25.1305 35.8513L29.2678 36.5401L29.2682 36.5403L30.3219 34.6111L29.2682 32.6821H29.2678Z" fill="#070A0B"/>
<path fill-rule="evenodd" clip-rule="evenodd" d="M25.2879 40.0741L24.7578 36.1663L23.8621 35.3661L22.9454 36.1663L22.4362 40.0741L23.8621 41.0693L25.2879 40.0741Z" fill="#070A0B"/>
<path fill-rule="evenodd" clip-rule="evenodd" d="M18.4578 32.6821L22.5952 33.3994L23.4424 34.6111L22.5952 35.8513L18.4578 36.5401L18.4575 36.5403L17.4037 34.6111L18.4575 32.6821H18.4578Z" fill="#070A0B"/>
<path d="M14.2764 35.1084C14.3469 35.437 14.5269 35.7324 14.7861 35.9463L22.9209 42.6592C23.4673 43.1101 24.2562 43.1145 24.8076 42.6699L33.1387 35.9521C33.408 35.7351 33.5933 35.4307 33.6631 35.0918L38.6504 10.915C38.7321 11.1585 38.7521 11.4247 38.6973 11.6904L33.6631 36.0918C33.5933 36.4307 33.408 36.7351 33.1387 36.9521L24.8076 43.6699C24.2562 44.1145 23.4673 44.1101 22.9209 43.6592L14.7861 36.9463C14.5269 36.7324 14.3469 36.437 14.2764 36.1084L9.0332 11.6982C8.97523 11.4282 8.9947 11.1567 9.07812 10.9092L14.2764 35.1084Z" fill="black" fill-opacity="0.1"/>
<defs>
<linearGradient id="paint0_linear_9_1526" x1="30.931" y1="4.56379" x2="30.6043" y2="42.7604" gradientUnits="userSpaceOnUse">
<stop stop-color="#4B93FF"/>
<stop offset="1" stop-color="#18DFEC"/>
</linearGradient>
<linearGradient id="paint1_linear_9_1526" x1="23" y1="19.5" x2="41" y2="48" gradientUnits="userSpaceOnUse">
<stop stop-opacity="0.2"/>
<stop offset="1" stop-opacity="0"/>
</linearGradient>
<linearGradient id="paint2_linear_9_1526" x1="23" y1="19.5" x2="41" y2="48" gradientUnits="userSpaceOnUse">
<stop stop-opacity="0.2"/>
<stop offset="1" stop-opacity="0"/>
</linearGradient>
</defs>
</svg>
