<svg width="48" height="48" viewBox="0 0 48 48" fill="none" xmlns="http://www.w3.org/2000/svg">
<rect x="8" y="4" width="32" height="40" rx="3" fill="url(#paint0_linear_16_204)"/>
<path d="M21.9805 12.0831C21.8168 11.6857 21.022 10.9521 21.959 11.1261C22.9481 11.0785 23.9352 11.339 24.7617 11.8898C24.9311 11.9511 25.0378 12.0281 25.1006 12.1144C25.1417 12.1454 25.1738 12.1784 25.1992 12.213C25.2418 12.2449 25.2748 12.2789 25.3008 12.3146C25.3423 12.346 25.3748 12.3791 25.4004 12.4142C25.4413 12.445 25.4736 12.4775 25.499 12.5119C25.5418 12.5438 25.5745 12.5786 25.6006 12.6144C25.6417 12.6454 25.6738 12.6784 25.6992 12.713C25.7418 12.7449 25.7748 12.7789 25.8008 12.8146C25.8423 12.846 25.8748 12.8791 25.9004 12.9142C25.9413 12.945 25.9736 12.9775 25.999 13.0119C26.0418 13.0438 26.0745 13.0786 26.1006 13.1144C26.1417 13.1454 26.1738 13.1784 26.1992 13.213C26.2418 13.2449 26.2748 13.2789 26.3008 13.3146C26.3423 13.346 26.3748 13.3791 26.4004 13.4142C26.4413 13.445 26.4736 13.4775 26.499 13.5119C26.5418 13.5438 26.5745 13.5786 26.6006 13.6144C26.6417 13.6454 26.6738 13.6784 26.6992 13.713C26.7418 13.7449 26.7748 13.7789 26.8008 13.8146C26.8424 13.846 26.8748 13.8791 26.9004 13.9142C26.9413 13.945 26.9736 13.9775 26.999 14.0119C27.0418 14.0438 27.0745 14.0786 27.1006 14.1144C27.1417 14.1454 27.1738 14.1784 27.1992 14.213C27.2418 14.2449 27.2748 14.2789 27.3008 14.3146C27.3424 14.346 27.3748 14.3791 27.4004 14.4142C27.4413 14.445 27.4736 14.4775 27.499 14.5119C27.5418 14.5438 27.5745 14.5786 27.6006 14.6144C27.6415 14.6452 27.6738 14.6776 27.6992 14.712C27.742 14.744 27.7747 14.7787 27.8008 14.8146C27.8424 14.846 27.8748 14.8791 27.9004 14.9142C27.9417 14.9453 27.9745 14.978 28 15.0128C28.0423 15.0446 28.0747 15.0789 28.1006 15.1144C28.1415 15.1452 28.1738 15.1776 28.1992 15.212C28.242 15.244 28.2747 15.2787 28.3008 15.3146C28.3424 15.346 28.3748 15.3791 28.4004 15.4142C28.4418 15.4453 28.4745 15.478 28.5 15.5128C28.5423 15.5446 28.5747 15.5789 28.6006 15.6144C28.6415 15.6452 28.6738 15.6776 28.6992 15.712C28.742 15.744 28.7747 15.7787 28.8008 15.8146C28.8424 15.846 28.8748 15.8791 28.9004 15.9142C28.9418 15.9453 28.9745 15.978 29 16.0128C29.0423 16.0446 29.0747 16.0789 29.1006 16.1144C29.1415 16.1452 29.1738 16.1776 29.1992 16.212C29.242 16.244 29.2747 16.2787 29.3008 16.3146C29.3424 16.346 29.3748 16.3791 29.4004 16.4142C29.4418 16.4453 29.4745 16.478 29.5 16.5128C29.5423 16.5446 29.5747 16.5789 29.6006 16.6144C29.6415 16.6452 29.6738 16.6776 29.6992 16.712C29.742 16.744 29.7747 16.7787 29.8008 16.8146C29.8424 16.846 29.8748 16.8791 29.9004 16.9142C29.9182 16.9276 29.9335 16.9421 29.9482 16.9562C30.6091 16.6295 31.3103 16.4759 31.916 17.131C31.9289 17.1429 31.9423 17.1545 31.9551 17.1671C32.4669 17.6147 33.0981 17.9425 33.5635 18.4318L34.0615 18.9298C34.0936 18.9606 34.1255 18.9915 34.1562 19.0236C34.1907 19.0565 34.2239 19.0907 34.2568 19.1251L36.8623 21.7306C36.8937 21.7607 36.925 21.791 36.9551 21.8224C36.9946 21.8601 37.0328 21.899 37.0703 21.9386L37.2568 22.1251C37.2907 22.1574 37.3241 22.19 37.3564 22.2238C37.3901 22.2559 37.4229 22.2888 37.4551 22.3224C37.4946 22.3601 37.5328 22.399 37.5703 22.4386L37.8574 22.7257C37.8906 22.7574 37.9234 22.7893 37.9551 22.8224C37.9946 22.8601 38.0328 22.899 38.0703 22.9386L38.3574 23.2257C38.3906 23.2574 38.4234 23.2893 38.4551 23.3224C38.4946 23.3601 38.5328 23.399 38.5703 23.4386L38.8574 23.7257C38.8906 23.7574 38.9234 23.7893 38.9551 23.8224C38.9946 23.8601 39.0328 23.899 39.0703 23.9386L39.3574 24.2257C39.3906 24.2574 39.4234 24.2893 39.4551 24.3224C39.4946 24.3601 39.5328 24.399 39.5703 24.4386L39.8574 24.7257C39.8906 24.7574 39.9234 24.7893 39.9551 24.8224C39.9704 24.837 39.985 24.8524 40 24.8673V41.0001C40 42.657 38.6569 44.0001 37 44.0001H28.7656L26.8535 42.088C26.8161 42.057 26.7828 42.0238 26.7529 41.9884C26.7152 41.9571 26.6825 41.9226 26.6523 41.8869L26.3535 41.588C26.3161 41.557 26.2828 41.5238 26.2529 41.4884C26.2156 41.4574 26.1832 41.4232 26.1533 41.3878L25.8535 41.088C25.8161 41.057 25.7828 41.0238 25.7529 40.9884C25.7156 40.9574 25.6832 40.9232 25.6533 40.8878L25.3535 40.588C25.3161 40.557 25.2828 40.5238 25.2529 40.4884C25.2156 40.4574 25.1832 40.4232 25.1533 40.3878L24.8535 40.088C24.8158 40.0567 24.7821 40.0232 24.752 39.9874C24.715 39.9566 24.6829 39.9229 24.6533 39.8878L24.3535 39.588C24.3158 39.5567 24.2821 39.5232 24.252 39.4874C24.215 39.4566 24.1829 39.4229 24.1533 39.3878L23.8535 39.088C23.8158 39.0567 23.7821 39.0232 23.752 38.9874C23.715 38.9566 23.6829 38.9229 23.6533 38.8878C23.6159 38.8568 23.5826 38.8236 23.5527 38.7882C23.515 38.7569 23.4823 38.7225 23.4521 38.6867C23.4154 38.656 23.383 38.6229 23.3535 38.588C23.3165 38.5573 23.2836 38.5244 23.2539 38.4894C23.2161 38.4581 23.1835 38.4236 23.1533 38.3878C23.1159 38.3568 23.0826 38.3236 23.0527 38.2882C23.0154 38.2572 22.983 38.223 22.9531 38.1876C22.9159 38.1567 22.8833 38.1233 22.8535 38.088C22.8165 38.0573 22.7836 38.0244 22.7539 37.9894C22.7161 37.9581 22.6835 37.9236 22.6533 37.8878C22.325 37.6152 22.3027 37.1625 22.2666 36.7658C22.1793 35.07 22.2525 33.3646 22.2285 31.6652C22.2125 31.649 22.1958 31.6331 22.1807 31.6154C22.1457 31.5856 22.1124 31.5524 22.0811 31.5158C22.0462 31.4861 22.0137 31.4526 21.9824 31.4161C21.9469 31.386 21.9127 31.3528 21.8809 31.3156C21.8454 31.2854 21.812 31.2513 21.7803 31.214C21.7455 31.1843 21.7118 31.1519 21.6807 31.1154C21.6457 31.0856 21.6124 31.0524 21.5811 31.0158C21.5462 30.9861 21.5137 30.9526 21.4824 30.9161C21.4469 30.886 21.4127 30.8528 21.3809 30.8156C21.3454 30.7854 21.312 30.7513 21.2803 30.714C21.2455 30.6843 21.2118 30.6519 21.1807 30.6154C21.1455 30.5854 21.1125 30.5517 21.0811 30.5148C21.0456 30.4846 21.0112 30.4515 20.9795 30.4142C20.9449 30.3846 20.9119 30.3519 20.8809 30.3156C20.846 30.2859 20.8135 30.2524 20.7822 30.216C20.7467 30.1858 20.7125 30.1526 20.6807 30.1154C20.6455 30.0854 20.6125 30.0517 20.5811 30.0148C20.5456 29.9846 20.5112 29.9515 20.4795 29.9142C20.4449 29.8846 20.4119 29.8519 20.3809 29.8156C20.346 29.7859 20.3135 29.7524 20.2822 29.716C20.2467 29.6858 20.2125 29.6526 20.1807 29.6154C20.1455 29.5854 20.1125 29.5517 20.0811 29.5148C20.0456 29.4846 20.0112 29.4515 19.9795 29.4142C19.9449 29.3846 19.9119 29.3519 19.8809 29.3156C19.846 29.2859 19.8135 29.2524 19.7822 29.216C19.7467 29.1858 19.7125 29.1526 19.6807 29.1154C19.6455 29.0854 19.6125 29.0517 19.5811 29.0148C19.5457 28.9847 19.5121 28.9513 19.4805 28.9142C19.4457 28.8845 19.4121 28.8521 19.3809 28.8156C19.346 28.7859 19.3135 28.7524 19.2822 28.716C19.2467 28.6858 19.2125 28.6526 19.1807 28.6154C19.1455 28.5854 19.1125 28.5517 19.0811 28.5148C19.0457 28.4847 19.0121 28.4513 18.9805 28.4142C18.9457 28.3845 18.9121 28.3521 18.8809 28.3156C18.846 28.2859 18.8135 28.2524 18.7822 28.216C18.7467 28.1858 18.7125 28.1526 18.6807 28.1154C18.6455 28.0854 18.6126 28.0517 18.5811 28.0148C18.5457 27.9847 18.5121 27.9513 18.4805 27.9142C18.4457 27.8845 18.4121 27.8521 18.3809 27.8156C18.346 27.7859 18.3135 27.7524 18.2822 27.716C18.2467 27.6858 18.2125 27.6526 18.1807 27.6154C18.0531 27.5069 17.9466 27.3533 17.8809 27.1486C17.4013 25.4322 16.6906 23.7953 15.8887 22.2052C15.4875 21.2786 15.1239 20.3134 14.4453 19.5587C14.4302 19.5452 14.4157 19.531 14.4004 19.5177L14.4053 19.5148L14.4043 19.5138C14.3699 19.4817 14.3357 19.4492 14.2998 19.4181C14.3017 19.4173 14.3038 19.4159 14.3057 19.4152C14.2708 19.3826 14.2366 19.3491 14.2002 19.3175L14.2051 19.3146C14.1704 19.2822 14.1358 19.2493 14.0996 19.2179C14.6586 18.9958 15.2219 18.7821 15.7783 18.5538C16.0272 18.4924 16.1835 18.5869 16.3086 18.7394L17.0078 19.4386C17.032 19.4582 17.0553 19.4793 17.0771 19.5031C18.9565 19.2275 20.8198 18.8548 22.6875 18.5109C22.7089 17.8813 22.6923 17.2515 22.6699 16.6222C22.5545 15.1 22.8449 13.4393 21.9805 12.0831Z" fill="url(#paint1_linear_16_204)"/>
<path d="M21.8592 11.0263C20.9214 10.852 21.7173 11.5862 21.8806 11.9836C22.7451 13.3398 22.4547 15 22.57 16.5222C22.5924 17.1515 22.6086 17.7809 22.5872 18.4105C20.6665 18.7642 18.7513 19.1532 16.8175 19.4305C16.3516 19.1934 16.3291 18.293 15.678 18.4542C15.1215 18.6824 14.559 18.8956 14 19.1177C14.911 19.9072 15.3245 21.0324 15.789 22.1052C16.5909 23.6954 17.3015 25.3325 17.781 27.049C18.184 28.3028 20.093 27.6419 19.2498 26.4136C18.9767 26.0701 19.9037 26.2624 20.1296 26.1375C20.8652 26.0374 21.6054 25.9823 22.3446 25.9172C22.3129 27.7988 22.2545 29.6797 22.1289 31.5569C22.1532 33.2591 22.0795 34.9669 22.1669 36.6654C22.2043 37.0758 22.2254 37.5474 22.5872 37.8163C23.5192 37.4426 23.633 36.2794 23.7752 35.396C23.9933 34.0765 23.8793 32.7272 23.9511 31.3946C23.9907 29.4962 24.0304 27.5979 24.0701 25.6996C26.3426 25.4544 28.6262 25.2953 30.8914 24.9925C31.5144 24.8035 31.7426 23.8623 30.9642 23.704C30.2024 23.6762 31.0874 23.0301 31.2156 22.6653C31.776 21.8802 32.2605 21.0261 32.8682 20.284C33.3553 19.851 34.2356 19.4621 33.7358 18.6689C33.2685 17.9685 32.4586 17.6032 31.835 17.0506C30.9325 16.0469 29.8129 16.8663 28.9322 17.3801C27.4444 17.8077 25.8996 17.93 24.3667 18.0978C24.3981 16.4868 24.5697 14.8806 24.6169 13.2692C24.7996 12.7921 25.5212 12.1006 24.662 11.7897C23.8354 11.2389 22.8484 10.9787 21.8592 11.0263ZM30.0421 19.0361C30.2204 20.0004 29.9018 21.0763 29.6606 22.0374C29.3722 22.7554 29.3544 23.9019 28.3476 23.7941C26.9417 24.0533 25.5144 24.161 24.0971 24.3397C24.1869 22.7441 24.2768 21.1485 24.3667 19.5529C26.2575 19.3602 28.1361 19.0131 30.0421 19.0361ZM22.4928 19.8384C22.4434 21.3978 22.394 22.9572 22.3446 24.5165C21.1133 24.6616 19.8821 24.8066 18.6508 24.9517C18.179 23.4875 17.7072 22.0234 17.2354 20.5592C18.9879 20.3189 20.7404 20.0787 22.4928 19.8384Z" fill="url(#paint2_linear_16_204)"/>
<path d="M40 41C40 42.6569 38.6569 44 37 44H11C9.34315 44 8 42.6569 8 41V40C8 41.6569 9.34315 43 11 43H37C38.6569 43 40 41.6569 40 40V41Z" fill="black" fill-opacity="0.1"/>
<defs>
<linearGradient id="paint0_linear_16_204" x1="24" y1="4" x2="24" y2="44" gradientUnits="userSpaceOnUse">
<stop stop-color="#8A1F14"/>
<stop offset="0.5" stop-color="#800C00"/>
<stop offset="1" stop-color="#730B00"/>
</linearGradient>
<linearGradient id="paint1_linear_16_204" x1="23.5" y1="20" x2="36.5" y2="33" gradientUnits="userSpaceOnUse">
<stop stop-opacity="0.2"/>
<stop offset="1" stop-opacity="0"/>
</linearGradient>
<linearGradient id="paint2_linear_16_204" x1="8.03415" y1="37.817" x2="8.03415" y2="11.0008" gradientUnits="userSpaceOnUse">
<stop stop-color="#EEF1F2"/>
<stop offset="1" stop-color="#F9FAFB"/>
</linearGradient>
</defs>
</svg>
