<svg width="48" height="48" viewBox="0 0 48 48" fill="none" xmlns="http://www.w3.org/2000/svg">
<path d="M26.5186 8.19727C29.0576 8.59873 31.3973 9.59837 33.3906 11.0459L38.1426 9.85742L36.9531 14.6084C38.4009 16.6017 39.4001 18.9414 39.8018 21.4805L44 24L39.8018 26.5186C39.4002 29.0578 38.4008 31.3972 36.9531 33.3906L38.1426 38.1426L33.3906 36.9531C31.3972 38.4008 29.0578 39.4002 26.5186 39.8018L24 44L21.4805 39.8018C18.9414 39.4001 16.6017 38.4009 14.6084 36.9531L9.85742 38.1426L11.0459 33.3906C9.59837 31.3973 8.59873 29.0576 8.19727 26.5186L4 24L8.19727 21.4805C8.59887 18.9415 9.5983 16.6017 11.0459 14.6084L9.85742 9.85742L14.6084 11.0459C16.6017 9.5983 18.9415 8.59887 21.4805 8.19727L24 4L26.5186 8.19727Z" fill="url(#paint0_linear_16_488)"/>
<path d="M37.875 37.0752L38.1426 38.1426L33.3906 36.9531C31.3972 38.4008 29.0578 39.4002 26.5186 39.8018L24 44L21.4805 39.8018C18.9414 39.4001 16.6017 38.4009 14.6084 36.9531L9.85742 38.1426L10.124 37.0752L14.6084 35.9531C16.6017 37.4009 18.9414 38.4001 21.4805 38.8018L24 43L26.5186 38.8018C29.0578 38.4002 31.3972 37.4008 33.3906 35.9531L37.875 37.0752Z" fill="black" fill-opacity="0.1"/>
<path d="M8.19727 25.5186C8.59873 28.0576 9.59837 30.3973 11.0459 32.3906L10.8604 33.1279C9.51335 31.1927 8.58127 28.9472 8.19727 26.5186L4 24L4.83301 23.499L8.19727 25.5186Z" fill="black" fill-opacity="0.1"/>
<path d="M44 24L39.8018 26.5186C39.4177 28.9475 38.485 31.1926 37.1377 33.1279L36.9531 32.3906C38.4008 30.3972 39.4002 28.0578 39.8018 25.5186L43.166 23.499L44 24Z" fill="black" fill-opacity="0.1"/>
<path d="M10.124 9.92383L11.0459 13.6084C10.9831 13.6949 10.9215 13.7823 10.8604 13.8701L9.85742 9.85742L10.124 9.92383Z" fill="black" fill-opacity="0.1"/>
<path d="M37.1377 13.8701C37.0767 13.7825 37.0158 13.6947 36.9531 13.6084L37.875 9.92383L38.1426 9.85742L37.1377 13.8701Z" fill="black" fill-opacity="0.1"/>
<defs>
<linearGradient id="paint0_linear_16_488" x1="-429.967" y1="44" x2="-429.967" y2="4" gradientUnits="userSpaceOnUse">
<stop stop-color="#2A2C2F"/>
<stop offset="1" stop-color="#424649"/>
</linearGradient>
</defs>
</svg>
