<svg width="48" height="48" viewBox="0 0 48 48" fill="none" xmlns="http://www.w3.org/2000/svg">
<path d="M18.6154 33V38.7273V40.3636V42H29.3846V40.3636V38.7273V33H18.6154Z" fill="url(#paint0_linear_9_2143)"/>
<path d="M44 6H4V35.4545H44V6Z" fill="url(#paint1_linear_9_2143)"/>
<path d="M5.53845 7.5V32.25H42.3329V7.5H5.53845Z" fill="url(#paint2_linear_9_2143)"/>
<path d="M33.2307 41.25H14.7692V42H33.2307V41.25Z" fill="#99A1A7"/>
<path d="M42.333 15.5234V32.25H15.75L12 28.5L36 11L42.333 15.5234Z" fill="url(#paint3_linear_9_2143)"/>
<path d="M12 12.5V28.5875H35.9164V12.5H12Z" fill="url(#paint4_linear_9_2143)"/>
<path fill-rule="evenodd" clip-rule="evenodd" d="M17.5 20.7875L12 25.3752V28.5875H17.5V20.7875Z" fill="url(#paint5_linear_9_2143)"/>
<path fill-rule="evenodd" clip-rule="evenodd" d="M17.5 21.275V28.5875H26.6759L17.5 21.275Z" fill="url(#paint6_linear_9_2143)"/>
<path fill-rule="evenodd" clip-rule="evenodd" d="M36 20.7875L26.5 28.5875H36V20.7875Z" fill="url(#paint7_linear_9_2143)"/>
<path fill-rule="evenodd" clip-rule="evenodd" d="M27 25.37V13.475L36 20.7875L27 28.5875V25.37Z" fill="url(#paint8_linear_9_2143)"/>
<path fill-rule="evenodd" clip-rule="evenodd" d="M12 16.4V26.6375L17.5 21.275L12 16.4Z" fill="url(#paint9_linear_9_2143)"/>
<path fill-rule="evenodd" clip-rule="evenodd" d="M12 12.5V16.6643L17.5 21.275V17.8625V12.5H12Z" fill="url(#paint10_linear_9_2143)"/>
<path fill-rule="evenodd" clip-rule="evenodd" d="M17.5 12.5V17.8625V21.275L27 13.475L25.5 12.5L17.5 12.5Z" fill="url(#paint11_linear_9_2143)"/>
<path fill-rule="evenodd" clip-rule="evenodd" d="M28.2743 12.5L27 13.475L36 20.7875V17.8625V12.5L28.2743 12.5Z" fill="url(#paint12_linear_9_2143)"/>
<path fill-rule="evenodd" clip-rule="evenodd" d="M25.5 12.5L27 13.475V12.5H25.5Z" fill="url(#paint13_linear_9_2143)"/>
<path fill-rule="evenodd" clip-rule="evenodd" d="M27 12.5V13.475L28.5 12.5H27Z" fill="url(#paint14_linear_9_2143)"/>
<path d="M36 26.6375H12V28.5875H36V26.6375Z" fill="white" fill-opacity="0.784314"/>
<path d="M34.5 28.1C34.7761 28.1 35 27.8817 35 27.6125C35 27.3432 34.7761 27.125 34.5 27.125C34.2239 27.125 34 27.3432 34 27.6125C34 27.8817 34.2239 28.1 34.5 28.1Z" fill="#4D4D4D"/>
<path d="M13 27.125V27.6125H13.5V27.125H13ZM13.5 27.6125V28.1H14V27.6125H13.5Z" fill="#4D4D4D"/>
<path d="M23 13.475H13V21.7625H23V13.475Z" fill="white" fill-opacity="0.784314"/>
<path d="M13.5 13.9625V15.9125H15.5833V14.45H15.0625L14.5417 13.9625H13.5Z" fill="#3580CA"/>
<path d="M17.5 13.9625V16.4H19.5V14.9375L18.5 13.9625H17.5Z" fill="#FF9955"/>
<path fill-rule="evenodd" clip-rule="evenodd" d="M18.5 13.9625L19.5 14.9375H18.5V13.9625Z" fill="#D45500"/>
<path d="M13.5 14.45H16V16.4H13.5V14.45Z" fill="#7AABDC"/>
<path d="M20.5 13.9625V16.4H22.5V14.9375L21.5 13.9625H20.5Z" fill="#71C837"/>
<path fill-rule="evenodd" clip-rule="evenodd" d="M21.5 13.9625L22.5 14.9375H21.5V13.9625Z" fill="#447821"/>
<path d="M12 11H36V12.5H12V11Z" fill="#EFF0F2"/>
<defs>
<linearGradient id="paint0_linear_9_2143" x1="-342.667" y1="42" x2="-342.667" y2="33" gradientUnits="userSpaceOnUse">
<stop stop-color="#C6CDD1"/>
<stop offset="1" stop-color="#E0E5E7"/>
</linearGradient>
<linearGradient id="paint1_linear_9_2143" x1="-316.476" y1="33" x2="-316.476" y2="6" gradientUnits="userSpaceOnUse">
<stop stop-color="#2A2C2F"/>
<stop offset="1" stop-color="#424649"/>
</linearGradient>
<linearGradient id="paint2_linear_9_2143" x1="-324.417" y1="42.15" x2="-324.417" y2="-0.749995" gradientUnits="userSpaceOnUse">
<stop stop-color="#7E8F9E"/>
<stop offset="1" stop-color="#84CED5"/>
</linearGradient>
<linearGradient id="paint3_linear_9_2143" x1="27" y1="22" x2="43" y2="33" gradientUnits="userSpaceOnUse">
<stop stop-opacity="0.2"/>
<stop offset="1" stop-opacity="0"/>
</linearGradient>
<linearGradient id="paint4_linear_9_2143" x1="-202.471" y1="35.0225" x2="-202.471" y2="7.13751" gradientUnits="userSpaceOnUse">
<stop stop-color="#7E8F9E"/>
<stop offset="1" stop-color="#84CED5"/>
</linearGradient>
<linearGradient id="paint5_linear_9_2143" x1="12" y1="31.9303" x2="17.5895" y2="24.7572" gradientUnits="userSpaceOnUse">
<stop stop-color="#E4A56D"/>
<stop offset="1" stop-color="#A7BD78"/>
</linearGradient>
<linearGradient id="paint6_linear_9_2143" x1="17.5" y1="-266.586" x2="26.676" y2="-266.586" gradientUnits="userSpaceOnUse">
<stop stop-color="#C3A278"/>
<stop offset="1" stop-color="#6688AA"/>
</linearGradient>
<linearGradient id="paint7_linear_9_2143" x1="31.4851" y1="32.4875" x2="35.3564" y2="25.8213" gradientUnits="userSpaceOnUse">
<stop stop-color="#6588AF"/>
<stop offset="1" stop-color="#8BA8CD"/>
</linearGradient>
<linearGradient id="paint8_linear_9_2143" x1="27" y1="-255.516" x2="35.9164" y2="-255.516" gradientUnits="userSpaceOnUse">
<stop stop-color="#89AD8B"/>
<stop offset="1" stop-color="#82B3C7"/>
</linearGradient>
<linearGradient id="paint9_linear_9_2143" x1="8.15001" y1="27.7351" x2="16.63" y2="21.304" gradientUnits="userSpaceOnUse">
<stop stop-color="#E1B16F"/>
<stop offset="1" stop-color="#99BF83"/>
</linearGradient>
<linearGradient id="paint10_linear_9_2143" x1="17.5" y1="18.3987" x2="10.5169" y2="11.7875" gradientUnits="userSpaceOnUse">
<stop stop-color="#99C487"/>
<stop offset="1" stop-color="#B4D99E"/>
</linearGradient>
<linearGradient id="paint11_linear_9_2143" x1="17.5" y1="13.5725" x2="26.9999" y2="13.4666" gradientUnits="userSpaceOnUse">
<stop stop-color="#75D5C7"/>
<stop offset="1" stop-color="#66AFB9"/>
</linearGradient>
<linearGradient id="paint12_linear_9_2143" x1="30.6715" y1="10.4281" x2="35.8575" y2="15.1544" gradientUnits="userSpaceOnUse">
<stop stop-color="#5C7B9E"/>
<stop offset="1" stop-color="#839DC0"/>
</linearGradient>
<linearGradient id="paint13_linear_9_2143" x1="26.676" y1="-255.517" x2="18.5227" y2="-255.517" gradientUnits="userSpaceOnUse">
<stop stop-color="#7FBCC6"/>
<stop offset="1" stop-color="#8EE4E3"/>
</linearGradient>
<linearGradient id="paint14_linear_9_2143" x1="26.676" y1="-255.517" x2="34.8293" y2="-255.517" gradientUnits="userSpaceOnUse">
<stop stop-color="#84D5D7"/>
<stop offset="1" stop-color="#84A8BA"/>
</linearGradient>
</defs>
</svg>
