<svg width="48" height="48" viewBox="0 0 48 48" fill="none" xmlns="http://www.w3.org/2000/svg">
<path d="M18.6154 33V38.7273V40.3636V42H29.3846V40.3636V38.7273V33H18.6154Z" fill="url(#paint0_linear_20_1198)"/>
<path d="M44 6H4V35.4545H44V6Z" fill="url(#paint1_linear_20_1198)"/>
<path d="M5.53845 7.5V32.25H42.3329V7.5H5.53845Z" fill="url(#paint2_linear_20_1198)"/>
<path d="M33.2307 41.25H14.7692V42H33.2307V41.25Z" fill="#99A1A7"/>
<path d="M18.3994 12.1052C18.6129 12.0784 18.8303 12.1645 18.9678 12.3396C19.0045 12.3691 19.0394 12.4018 19.0693 12.4402C19.1058 12.4696 19.1402 12.5026 19.1699 12.5408C19.2053 12.5694 19.2385 12.6015 19.2676 12.6384C19.3045 12.668 19.339 12.7015 19.3691 12.74C19.4051 12.769 19.4383 12.8021 19.4678 12.8396C19.5038 12.8685 19.5379 12.9008 19.5674 12.9382C19.6047 12.9681 19.6396 13.0018 19.6699 13.0408C19.7055 13.0696 19.7384 13.1023 19.7676 13.1394C19.8047 13.1692 19.8399 13.2022 19.8701 13.241C19.9057 13.2698 19.9386 13.3024 19.9678 13.3396C20.0038 13.3685 20.0379 13.4008 20.0674 13.4382C20.1047 13.4681 20.1396 13.5018 20.1699 13.5408C20.2055 13.5696 20.2384 13.6023 20.2676 13.6394C20.3042 13.6688 20.3383 13.7018 20.3682 13.74C20.4044 13.7691 20.4382 13.8019 20.4678 13.8396C20.504 13.8687 20.5378 13.9015 20.5674 13.9392C20.6047 13.9691 20.6396 14.0027 20.6699 14.0417C20.7053 14.0705 20.7386 14.1024 20.7676 14.1394C20.8042 14.1688 20.8383 14.2019 20.8682 14.24C20.9044 14.2691 20.9382 14.3019 20.9678 14.3396C21.004 14.3687 21.0378 14.4015 21.0674 14.4392C21.1042 14.4687 21.138 14.5024 21.168 14.5408C21.204 14.5698 21.2381 14.6018 21.2676 14.6394C21.3042 14.6688 21.3383 14.7019 21.3682 14.74C21.4047 14.7694 21.439 14.8024 21.4688 14.8406C21.5046 14.8695 21.5381 14.9019 21.5674 14.9392C21.6042 14.9687 21.638 15.0024 21.668 15.0408C21.704 15.0698 21.7381 15.1018 21.7676 15.1394C21.8041 15.1688 21.8383 15.2019 21.8682 15.24C21.904 15.2689 21.9374 15.3013 21.9668 15.3386C22.0034 15.3679 22.0375 15.4011 22.0674 15.4392C22.1043 15.4688 22.1389 15.5022 22.1689 15.5408C22.2051 15.57 22.239 15.6026 22.2686 15.6404C22.3047 15.6696 22.3386 15.7022 22.3682 15.74C22.404 15.7689 22.4374 15.8013 22.4668 15.8386C22.5034 15.8679 22.5375 15.9011 22.5674 15.9392C23.0508 15.8783 23.5624 15.8454 24.1045 15.8454C25.1859 15.8455 26.1446 15.9765 27.0049 16.199L29.1904 12.4128C29.3637 12.1132 29.7441 12.0113 30.0439 12.1843C30.116 12.2259 30.1764 12.2799 30.2246 12.3415C30.2628 12.3724 30.297 12.4064 30.3262 12.4441C30.3626 12.4738 30.3957 12.5058 30.4238 12.5417C30.4614 12.572 30.4946 12.6055 30.5234 12.6423C30.5617 12.6732 30.5968 12.7062 30.626 12.7439C30.6624 12.7736 30.6955 12.8056 30.7236 12.8415C30.7621 12.8725 30.7969 12.9062 30.8262 12.9441C30.8626 12.9738 30.8957 13.0058 30.9238 13.0417C30.9615 13.0721 30.9955 13.1053 31.0244 13.1423C31.0624 13.1731 31.0969 13.2064 31.126 13.2439C31.1624 13.2736 31.1955 13.3056 31.2236 13.3415C31.2612 13.3718 31.2944 13.4053 31.3232 13.4421C31.3615 13.473 31.3966 13.506 31.4258 13.5437C31.4624 13.5735 31.4952 13.6062 31.5234 13.6423C31.5617 13.6732 31.5968 13.7062 31.626 13.7439C31.6624 13.7736 31.6955 13.8056 31.7236 13.8415C31.7613 13.8719 31.7953 13.9051 31.8242 13.9421C31.8622 13.9729 31.8967 14.0062 31.9258 14.0437C31.9624 14.0735 31.9952 14.1062 32.0234 14.1423C32.0608 14.1725 32.0943 14.2053 32.123 14.2419C32.1613 14.2728 32.1964 14.3058 32.2256 14.3435C32.2622 14.3733 32.295 14.406 32.3232 14.4421C32.3615 14.473 32.3966 14.506 32.4258 14.5437C32.4624 14.5735 32.4952 14.6062 32.5234 14.6423C32.5609 14.6726 32.5952 14.7051 32.624 14.7419C32.662 14.7726 32.6965 14.806 32.7256 14.8435C32.7622 14.8733 32.795 14.906 32.8232 14.9421C32.8606 14.9723 32.8941 15.0051 32.9229 15.0417C32.9613 15.0727 32.9961 15.1064 33.0254 15.1443C33.0618 15.174 33.0949 15.206 33.123 15.2419C33.1613 15.2728 33.1964 15.3058 33.2256 15.3435C33.2622 15.3733 33.295 15.406 33.3232 15.4421C33.3607 15.4724 33.395 15.5049 33.4238 15.5417C33.462 15.5726 33.4962 15.6066 33.5254 15.6443C33.5618 15.674 33.5949 15.706 33.623 15.7419C33.6604 15.772 33.6939 15.8049 33.7227 15.8415C33.7611 15.8725 33.7959 15.9062 33.8252 15.9441C33.8616 15.9738 33.8947 16.0058 33.9229 16.0417C33.9613 16.0727 33.9961 16.1064 34.0254 16.1443C34.0618 16.174 34.0949 16.206 34.123 16.2419C34.1605 16.2722 34.1948 16.3047 34.2236 16.3415C34.2618 16.3724 34.296 16.4064 34.3252 16.4441C34.3616 16.4738 34.3947 16.5058 34.4229 16.5417C34.4604 16.572 34.4936 16.6055 34.5225 16.6423C34.5607 16.6732 34.5958 16.7062 34.625 16.7439C34.6614 16.7736 34.6945 16.8056 34.7227 16.8415C34.7611 16.8725 34.7959 16.9062 34.8252 16.9441C34.8616 16.9738 34.8947 17.0058 34.9229 17.0417C34.9605 17.0721 34.9945 17.1053 35.0234 17.1423C35.0614 17.1731 35.0959 17.2064 35.125 17.2439C35.1614 17.2736 35.1945 17.3056 35.2227 17.3415C35.2602 17.3718 35.2934 17.4053 35.3223 17.4421C35.3605 17.473 35.3956 17.506 35.4248 17.5437C35.4614 17.5735 35.4942 17.6062 35.5225 17.6423C35.5607 17.6732 35.5958 17.7062 35.625 17.7439C35.6614 17.7736 35.6945 17.8056 35.7227 17.8415C35.7603 17.8719 35.7943 17.9051 35.8232 17.9421C35.8612 17.9729 35.8957 18.0062 35.9248 18.0437C35.9614 18.0735 35.9942 18.1062 36.0225 18.1423C36.0598 18.1725 36.0933 18.2053 36.1221 18.2419C36.1603 18.2728 36.1954 18.3058 36.2246 18.3435C36.2612 18.3733 36.294 18.406 36.3223 18.4421C36.3605 18.473 36.3956 18.506 36.4248 18.5437C36.4614 18.5735 36.4942 18.6062 36.5225 18.6423C36.5599 18.6726 36.5942 18.7051 36.623 18.7419C36.661 18.7726 36.6955 18.806 36.7246 18.8435C36.7612 18.8733 36.794 18.906 36.8223 18.9421C36.8596 18.9723 36.8932 19.0051 36.9219 19.0417C36.9603 19.0727 36.9951 19.1064 37.0244 19.1443C37.0609 19.174 37.0939 19.206 37.1221 19.2419C37.1603 19.2728 37.1954 19.3058 37.2246 19.3435C37.2612 19.3733 37.294 19.406 37.3223 19.4421C37.3597 19.4724 37.3941 19.5049 37.4229 19.5417C37.4611 19.5726 37.4952 19.6066 37.5244 19.6443C37.5608 19.674 37.5939 19.706 37.6221 19.7419C37.6594 19.772 37.693 19.8049 37.7217 19.8415C37.7601 19.8725 37.7949 19.9062 37.8242 19.9441C37.8607 19.9738 37.8937 20.0058 37.9219 20.0417C37.9603 20.0727 37.9951 20.1064 38.0244 20.1443C38.0608 20.174 38.0939 20.206 38.1221 20.2419C38.1595 20.2722 38.1939 20.3047 38.2227 20.3415C38.2609 20.3724 38.295 20.4064 38.3242 20.4441C38.3606 20.4738 38.3937 20.5058 38.4219 20.5417C38.4594 20.572 38.4926 20.6055 38.5215 20.6423C38.5597 20.6732 38.5948 20.7062 38.624 20.7439C38.6605 20.7736 38.6935 20.8056 38.7217 20.8415C38.7601 20.8725 38.7949 20.9062 38.8242 20.9441C38.8606 20.9738 38.8937 21.0058 38.9219 21.0417C38.9596 21.0721 38.9935 21.1053 39.0225 21.1423C39.0605 21.1731 39.095 21.2064 39.124 21.2439C39.1604 21.2736 39.1935 21.3056 39.2217 21.3415C39.2592 21.3718 39.2924 21.4053 39.3213 21.4421C39.3595 21.473 39.3946 21.506 39.4238 21.5437C39.4605 21.5735 39.4932 21.6062 39.5215 21.6423C39.5597 21.6732 39.5948 21.7062 39.624 21.7439C39.6604 21.7736 39.6935 21.8056 39.7217 21.8415C39.7594 21.8719 39.7933 21.9051 39.8223 21.9421C39.8603 21.9729 39.8948 22.0062 39.9238 22.0437C39.9605 22.0735 39.9932 22.1062 40.0215 22.1423C40.0588 22.1725 40.0924 22.2053 40.1211 22.2419C40.1593 22.2728 40.1944 22.3058 40.2236 22.3435C40.2603 22.3733 40.293 22.406 40.3213 22.4421C40.3595 22.473 40.3946 22.506 40.4238 22.5437C40.4604 22.5735 40.4932 22.6062 40.5215 22.6423C40.559 22.6726 40.5933 22.7051 40.6221 22.7419C40.6601 22.7726 40.6946 22.806 40.7236 22.8435C40.7603 22.8733 40.793 22.906 40.8213 22.9421C40.8586 22.9723 40.8922 23.0051 40.9209 23.0417C40.9594 23.0727 40.9941 23.1064 41.0234 23.1443C41.0599 23.174 41.0929 23.206 41.1211 23.2419C41.1593 23.2728 41.1944 23.3058 41.2236 23.3435C41.2602 23.3733 41.293 23.406 41.3213 23.4421C41.3588 23.4724 41.3931 23.5049 41.4219 23.5417C41.4601 23.5726 41.4943 23.6066 41.5234 23.6443C41.5599 23.674 41.5929 23.706 41.6211 23.7419C41.6584 23.772 41.692 23.8049 41.7207 23.8415C41.7592 23.8725 41.7939 23.9062 41.8232 23.9441C41.8597 23.9738 41.8927 24.0058 41.9209 24.0417C41.9593 24.0727 41.9941 24.1064 42.0234 24.1443C42.0599 24.174 42.093 24.206 42.1211 24.2419C42.1586 24.2722 42.1929 24.3047 42.2217 24.3415C42.2599 24.3724 42.2941 24.4064 42.3232 24.4441C42.3266 24.4469 42.3297 24.4501 42.333 24.4529V32.2497H19.2998C19.3002 32.235 19.3006 32.2184 19.3008 32.1999H19.1992C19.1992 32.1783 19.2007 32.1448 19.2012 32.1003H19.0986C19.0986 32.0786 19.1002 32.0446 19.1006 31.9997H18.999C18.999 31.978 19.0005 31.9445 19.001 31.9001H18.8984C18.8984 31.8785 18.9 31.845 18.9004 31.8005H18.7988C18.7988 31.7788 18.8004 31.7447 18.8008 31.6999H18.6992C18.6992 31.6783 18.7007 31.6448 18.7012 31.6003H18.5986C18.5986 31.5786 18.6002 31.5446 18.6006 31.4997H18.499C18.499 31.478 18.5005 31.4445 18.501 31.4001H18.3994C18.3994 31.3785 18.4009 31.345 18.4014 31.3005H18.2988C18.2988 31.2788 18.3004 31.2447 18.3008 31.1999H18.1992C18.1992 31.1783 18.2007 31.1448 18.2012 31.1003H18.0986C18.0986 31.0786 18.1002 31.0446 18.1006 30.9997H17.999C17.999 30.9781 18.0005 30.9445 18.001 30.9001H17.8994C17.8994 30.8785 17.9009 30.845 17.9014 30.8005H17.7988C17.7988 30.7788 17.8004 30.7447 17.8008 30.6999H17.6992C17.6992 30.6783 17.7007 30.6448 17.7012 30.6003H17.5996C17.5996 30.5786 17.6011 30.5446 17.6016 30.4997H17.499C17.499 30.4781 17.5005 30.4445 17.501 30.4001H17.3994C17.3994 30.3785 17.4009 30.345 17.4014 30.3005H17.2988C17.2988 30.2788 17.3004 30.2447 17.3008 30.1999H17.1992C17.1992 30.1783 17.2007 30.1448 17.2012 30.1003H17.0996C17.0996 30.0786 17.1011 30.0446 17.1016 29.9997H16.999C16.999 29.9781 17.0005 29.9445 17.001 29.9001H16.8994C16.8994 29.8785 16.9009 29.845 16.9014 29.8005H16.7998C16.7998 29.7788 16.8013 29.7447 16.8018 29.6999H16.6992C16.6992 29.6783 16.7007 29.6448 16.7012 29.6003H16.5996C16.5996 29.5786 16.6011 29.5446 16.6016 29.4997H16.499C16.499 29.4781 16.5005 29.4445 16.501 29.4001H16.3994C16.3994 29.3785 16.4009 29.345 16.4014 29.3005H16.2998C16.2998 29.2788 16.3013 29.2447 16.3018 29.1999H16.1992C16.1992 29.1783 16.2007 29.1448 16.2012 29.1003H16.0996C16.0996 29.0786 16.1011 29.0446 16.1016 28.9997H16C16 28.9781 16.0015 28.9445 16.002 28.9001H15.8994C15.8994 28.8785 15.9009 28.845 15.9014 28.8005H15.7998C15.7998 28.7788 15.8013 28.7447 15.8018 28.6999H15.6992C15.6992 28.6783 15.7007 28.6448 15.7012 28.6003H15.5996C15.5996 28.5786 15.6011 28.5446 15.6016 28.4997H15.5C15.5 28.4781 15.5015 28.4445 15.502 28.4001H15.3994C15.3994 28.3785 15.4009 28.345 15.4014 28.3005H15.2998C15.2998 28.2788 15.3013 28.2447 15.3018 28.1999H15.2002C15.2002 28.1783 15.2017 28.1448 15.2021 28.1003H15.0996C15.0996 28.0786 15.1011 28.0446 15.1016 27.9997H15C15 27.9781 15.0015 27.9445 15.002 27.9001H14.8994C14.8994 27.8785 14.9009 27.845 14.9014 27.8005H14.7998C14.7998 27.7788 14.8013 27.7447 14.8018 27.6999H14.7002C14.7002 27.6783 14.7017 27.6448 14.7021 27.6003H14.5996C14.5996 27.5786 14.6011 27.5446 14.6016 27.4997H14.5C14.5 27.4781 14.5015 27.4445 14.502 27.4001H14.4004C14.4004 27.3785 14.4019 27.345 14.4023 27.3005H14.2998C14.2998 27.2788 14.3013 27.2447 14.3018 27.1999H14.2002C14.2002 27.1783 14.2017 27.1448 14.2021 27.1003H14.0996C14.0996 26.5738 14.1051 19.0292 19.9912 16.5974L17.9355 13.0388C17.7624 12.7388 17.8641 12.3575 18.1641 12.1843C18.2389 12.1413 18.319 12.1152 18.3994 12.1052Z" fill="url(#paint3_linear_20_1198)"/>
<path fill-rule="evenodd" clip-rule="evenodd" d="M29.0842 12.3132C29.2573 12.0133 29.6377 11.9111 29.9375 12.0842C30.2374 12.2574 30.3401 12.6385 30.167 12.9385L28.1125 16.4977C33.9952 18.9299 34 26.4736 34 27H14C14 26.4735 14.005 18.9294 19.8887 16.4977L17.8342 12.9385C17.6611 12.6385 17.7626 12.2574 18.0625 12.0842C18.1374 12.0412 18.2176 12.0155 18.2981 12.0055C18.5398 11.9751 18.7871 12.0882 18.917 12.3132L21.1008 16.0989C21.9608 15.8765 22.9188 15.7454 24 15.7454C25.0812 15.7454 26.0392 15.8765 26.8992 16.0989L29.0842 12.3132ZM20.25 20.7474C19.5597 20.7474 19.0002 21.3075 19 21.998C19 22.6886 19.5596 23.2485 20.25 23.2485C20.9404 23.2485 21.5 22.6886 21.5 21.998C21.4998 21.3075 20.9403 20.7474 20.25 20.7474ZM27.75 20.7474C27.0597 20.7474 26.5002 21.3075 26.5 21.998C26.5 22.6886 27.0596 23.2485 27.75 23.2485C28.4404 23.2485 29 22.6886 29 21.998C28.9998 21.3075 28.4403 20.7474 27.75 20.7474Z" fill="white"/>
<defs>
<linearGradient id="paint0_linear_20_1198" x1="-342.667" y1="42" x2="-342.667" y2="33" gradientUnits="userSpaceOnUse">
<stop stop-color="#C6CDD1"/>
<stop offset="1" stop-color="#E0E5E7"/>
</linearGradient>
<linearGradient id="paint1_linear_20_1198" x1="-316.476" y1="33" x2="-316.476" y2="6" gradientUnits="userSpaceOnUse">
<stop stop-color="#2A2C2F"/>
<stop offset="1" stop-color="#424649"/>
</linearGradient>
<linearGradient id="paint2_linear_20_1198" x1="23.9357" y1="13.6802" x2="23.9357" y2="32.25" gradientUnits="userSpaceOnUse">
<stop stop-color="#569914"/>
<stop offset="1" stop-color="#9CC94B"/>
</linearGradient>
<linearGradient id="paint3_linear_20_1198" x1="25.5" y1="22.5" x2="37.5" y2="34.5" gradientUnits="userSpaceOnUse">
<stop stop-opacity="0.2"/>
<stop offset="1" stop-opacity="0"/>
</linearGradient>
</defs>
</svg>
