<svg width="48" height="48" viewBox="0 0 48 48" fill="none" xmlns="http://www.w3.org/2000/svg">
<circle cx="24" cy="24" r="20" fill="url(#paint0_linear_4_170)"/>
<path d="M24.0996 11.0996C24.774 11.0996 25.4372 11.1511 26.084 11.25L26.0703 11.335C26.1081 11.3404 26.1459 11.3448 26.1836 11.3506L26.1699 11.4346C26.2079 11.44 26.2464 11.4444 26.2842 11.4502L26.2705 11.5352C26.3082 11.5406 26.3462 11.545 26.3838 11.5508L26.3701 11.6348C26.4079 11.6402 26.4457 11.6446 26.4834 11.6504L26.4697 11.7344C26.5077 11.7398 26.5461 11.7442 26.584 11.75L26.5703 11.835C26.6081 11.8404 26.6459 11.8448 26.6836 11.8506L26.6699 11.9346C26.7079 11.94 26.7463 11.9444 26.7842 11.9502L26.7705 12.0352C26.8082 12.0406 26.8462 12.045 26.8838 12.0508L26.8701 12.1348C26.9079 12.1402 26.9457 12.1446 26.9834 12.1504L26.9697 12.2344C26.9785 12.2356 26.9873 12.237 26.9961 12.2383L27.1855 11.4687C28.4778 11.7834 29.7137 12.2954 30.8496 12.9873L30.8301 13.0176C30.8699 13.0412 30.9107 13.0638 30.9502 13.0879L30.9307 13.1182C30.9702 13.1416 31.0106 13.1636 31.0498 13.1875L31.0312 13.2178C31.0707 13.2412 31.1112 13.2632 31.1504 13.2871L31.1309 13.3184C31.1703 13.3418 31.2108 13.3638 31.25 13.3877L31.2305 13.418C31.27 13.4414 31.3104 13.4634 31.3496 13.4873L31.3301 13.5176C31.3699 13.5412 31.4107 13.5638 31.4502 13.5879L31.4307 13.6182C31.4702 13.6416 31.5106 13.6636 31.5498 13.6875L31.5312 13.7178C31.5707 13.7412 31.6112 13.7632 31.6504 13.7871L31.6309 13.8174L31.7832 13.6123C32.3387 14.0201 32.8596 14.4714 33.3428 14.96C33.3757 14.9925 33.4089 15.0247 33.4414 15.0576C33.4743 15.0902 33.5065 15.1234 33.5391 15.1562C33.5733 15.1901 33.6078 15.2236 33.6416 15.2578C33.6745 15.2903 33.7067 15.3236 33.7393 15.3564C33.774 15.3908 33.8085 15.4253 33.8428 15.46C33.8757 15.4925 33.9089 15.5247 33.9414 15.5576C33.9743 15.5902 34.0065 15.6234 34.0391 15.6562C34.0733 15.6901 34.1078 15.7236 34.1416 15.7578C34.1745 15.7903 34.2067 15.8236 34.2393 15.8564C34.2704 15.8872 34.3012 15.9182 34.332 15.9492C34.3686 15.9853 34.4053 16.0211 34.4414 16.0576C34.4743 16.0902 34.5065 16.1234 34.5391 16.1562C34.5733 16.1901 34.6078 16.2236 34.6416 16.2578C34.6745 16.2903 34.7067 16.3236 34.7393 16.3564C34.774 16.3908 34.8085 16.4253 34.8428 16.46C34.8757 16.4925 34.9089 16.5247 34.9414 16.5576C34.9743 16.5902 35.0065 16.6234 35.0391 16.6562C35.0733 16.6901 35.1078 16.7236 35.1416 16.7578C35.1745 16.7903 35.2067 16.8236 35.2393 16.8564C35.274 16.8908 35.3085 16.9253 35.3428 16.96C35.3757 16.9925 35.4089 17.0247 35.4414 17.0576C35.4743 17.0902 35.5065 17.1234 35.5391 17.1562C35.5733 17.1901 35.6078 17.2236 35.6416 17.2578C35.6709 17.2868 35.6995 17.3164 35.7285 17.3457C35.7705 17.3871 35.8121 17.4288 35.8535 17.4707C35.8828 17.4997 35.9124 17.5283 35.9414 17.5576C35.975 17.5908 36.0078 17.6247 36.041 17.6582C36.0746 17.6914 36.1084 17.7243 36.1416 17.7578C36.1709 17.7868 36.1995 17.8164 36.2285 17.8457C36.2705 17.8871 36.3121 17.9288 36.3535 17.9707C36.3828 17.9997 36.4124 18.0283 36.4414 18.0576C36.4743 18.0902 36.5065 18.1234 36.5391 18.1562C36.5733 18.1901 36.6078 18.2236 36.6416 18.2578C36.6709 18.2868 36.6995 18.3164 36.7285 18.3457L37.041 18.6582C37.0746 18.6914 37.1084 18.7243 37.1416 18.7578C37.1709 18.7868 37.1995 18.8164 37.2285 18.8457L37.541 19.1582C37.5746 19.1914 37.6084 19.2243 37.6416 19.2578C37.6709 19.2868 37.6995 19.3164 37.7285 19.3457L38.041 19.6582C38.0746 19.6914 38.1084 19.7243 38.1416 19.7578C38.1709 19.7868 38.1995 19.8164 38.2285 19.8457L38.541 20.1582C38.5746 20.1914 38.6084 20.2243 38.6416 20.2578C38.6709 20.2868 38.6995 20.3165 38.7285 20.3457L38.9287 20.5459C38.9702 20.5868 39.0118 20.6275 39.0527 20.6689L39.2305 20.8467C39.2719 20.8876 39.3126 20.9292 39.3535 20.9707C39.3787 20.9957 39.4037 21.0207 39.4287 21.0459C39.4702 21.0868 39.5118 21.1275 39.5527 21.1689L39.7305 21.3467C39.7719 21.3876 39.8126 21.4292 39.8535 21.4707C39.8787 21.4957 39.9037 21.5207 39.9287 21.5459C39.9702 21.5868 40.0118 21.6275 40.0527 21.6689C40.082 21.698 40.1107 21.7275 40.1396 21.7568C40.1699 21.7868 40.2005 21.8164 40.2305 21.8467C40.2719 21.8876 40.3126 21.9292 40.3535 21.9707C40.3787 21.9957 40.4037 22.0207 40.4287 22.0459C40.4702 22.0868 40.5118 22.1275 40.5527 22.1689C40.582 22.198 40.6107 22.2275 40.6396 22.2568C40.6699 22.2868 40.7005 22.3164 40.7305 22.3467C40.7719 22.3876 40.8126 22.4292 40.8535 22.4707C40.8787 22.4957 40.9037 22.5207 40.9287 22.5459C40.9702 22.5868 41.0118 22.6275 41.0527 22.6689C41.082 22.698 41.1107 22.7275 41.1396 22.7568C41.1699 22.7868 41.2005 22.8164 41.2305 22.8467C41.2719 22.8876 41.3126 22.9292 41.3535 22.9707C41.3787 22.9957 41.4037 23.0207 41.4287 23.0459C41.4702 23.0868 41.5118 23.1275 41.5527 23.1689C41.582 23.198 41.6107 23.2275 41.6396 23.2568C41.6699 23.2868 41.7005 23.3164 41.7305 23.3467C41.7719 23.3876 41.8126 23.4292 41.8535 23.4707C41.8787 23.4957 41.9037 23.5207 41.9287 23.5459C41.9702 23.5868 42.0118 23.6275 42.0527 23.6689C42.0784 23.6944 42.1035 23.7204 42.1289 23.7461C42.1666 23.7833 42.205 23.8198 42.2422 23.8574C42.2798 23.8947 42.3163 23.933 42.3535 23.9707C42.3792 23.9962 42.4052 24.0212 42.4307 24.0469C42.4716 24.0873 42.5123 24.128 42.5527 24.1689C42.5784 24.1944 42.6035 24.2204 42.6289 24.2461C42.6666 24.2833 42.705 24.3198 42.7422 24.3574C42.7798 24.3947 42.8163 24.433 42.8535 24.4707C42.8792 24.4962 42.9052 24.5212 42.9307 24.5469C42.9716 24.5873 43.0123 24.628 43.0527 24.6689C43.0784 24.6944 43.1035 24.7204 43.1289 24.7461C43.1666 24.7833 43.205 24.8198 43.2422 24.8574C43.2793 24.8942 43.3158 24.9316 43.3525 24.9687C43.3787 24.9947 43.4047 25.0207 43.4307 25.0469C43.4721 25.0878 43.5128 25.1294 43.5537 25.1709C43.5789 25.1959 43.6039 25.2209 43.6289 25.2461C43.6666 25.2833 43.705 25.3198 43.7422 25.3574C43.7793 25.3942 43.8158 25.4316 43.8525 25.4687L43.9395 25.5557C43.1456 35.8743 34.5222 44 24 44C22.3646 44 20.7754 43.802 19.2539 43.4316C19.2219 43.4014 19.1911 43.3702 19.1611 43.3379C19.1267 43.3058 19.0936 43.2727 19.0615 43.2383C19.0269 43.2061 18.9931 43.1733 18.9609 43.1387C18.9263 43.1064 18.8935 43.0727 18.8613 43.0381C18.8271 43.0062 18.7936 42.9737 18.7617 42.9395C18.7268 42.9069 18.6936 42.8728 18.6611 42.8379C18.6267 42.8058 18.5936 42.7727 18.5615 42.7383C18.5269 42.7061 18.4931 42.6733 18.4609 42.6387C18.4263 42.6064 18.3935 42.5727 18.3613 42.5381C18.3267 42.5059 18.2929 42.4731 18.2607 42.4385C18.2262 42.4062 18.1933 42.3725 18.1611 42.3379C18.1267 42.3058 18.0936 42.2727 18.0615 42.2383C18.0269 42.2061 17.9931 42.1733 17.9609 42.1387C17.9263 42.1064 17.8935 42.0727 17.8613 42.0381C17.8267 42.0059 17.7929 41.9731 17.7607 41.9385C17.7262 41.9062 17.6933 41.8725 17.6611 41.8379C17.6276 41.8066 17.5948 41.7748 17.5635 41.7412C17.527 41.7073 17.4919 41.6723 17.458 41.6357C17.4245 41.6044 17.3926 41.5717 17.3613 41.5381C17.3267 41.5059 17.2929 41.4731 17.2607 41.4385C17.2262 41.4062 17.1933 41.3725 17.1611 41.3379C17.1276 41.3066 17.0948 41.2748 17.0635 41.2412C17.027 41.2073 16.9919 41.1723 16.958 41.1357C16.9245 41.1044 16.8926 41.0717 16.8613 41.0381C16.8267 41.0059 16.7929 40.9731 16.7607 40.9385C16.7262 40.9062 16.6933 40.8725 16.6611 40.8379C16.6276 40.8066 16.5948 40.7748 16.5635 40.7412C16.527 40.7073 16.4919 40.6723 16.458 40.6357C16.4245 40.6044 16.3926 40.5717 16.3613 40.5381C16.3267 40.5059 16.2929 40.4731 16.2607 40.4385C16.2262 40.4062 16.1933 40.3725 16.1611 40.3379C16.1279 40.3069 16.0955 40.2754 16.0645 40.2422C16.0276 40.208 15.9922 40.1726 15.958 40.1357C15.9245 40.1044 15.8926 40.0717 15.8613 40.0381C15.8267 40.0059 15.7929 39.9731 15.7607 39.9385C15.7262 39.9062 15.6933 39.8725 15.6611 39.8379C15.6279 39.8069 15.5955 39.7754 15.5645 39.7422C15.5276 39.708 15.4922 39.6726 15.458 39.6357C15.4245 39.6044 15.3926 39.5717 15.3613 39.5381C15.3267 39.5059 15.2929 39.4731 15.2607 39.4385C15.2262 39.4062 15.1933 39.3725 15.1611 39.3379C15.1276 39.3066 15.0948 39.2748 15.0635 39.2412C15.027 39.2073 14.9919 39.1723 14.958 39.1357C14.9245 39.1044 14.8926 39.0717 14.8613 39.0381C14.8267 39.0059 14.7929 38.9731 14.7607 38.9385C14.7262 38.9062 14.6933 38.8725 14.6611 38.8379C14.6276 38.8066 14.5948 38.7748 14.5635 38.7412L14.2578 38.4355C14.2243 38.4042 14.1924 38.3715 14.1611 38.3379C14.1276 38.3066 14.0948 38.2748 14.0635 38.2412L13.7578 37.9355C13.7243 37.9042 13.6924 37.8715 13.6611 37.8379C13.6276 37.8066 13.5948 37.7748 13.5635 37.7412L13.2578 37.4355C13.2243 37.4042 13.1924 37.3715 13.1611 37.3379C13.1276 37.3066 13.0948 37.2748 13.0635 37.2412L12.7578 36.9355C12.7243 36.9042 12.6924 36.8715 12.6611 36.8379C12.6276 36.8066 12.5948 36.7748 12.5635 36.7412L12.2578 36.4355C12.2243 36.4042 12.1924 36.3715 12.1611 36.3379C12.1276 36.3066 12.0948 36.2748 12.0635 36.2412C11.5782 35.7908 11.3177 35.1011 11.4883 34.3701L11.9814 32.2549L13.168 32.5322L13.1504 32.6045L13.2686 32.6318L13.251 32.7051L13.3682 32.7324L13.3506 32.8047L13.4678 32.832L13.4502 32.9043L13.5684 32.9326L13.5508 33.0049L13.668 33.0322L13.6504 33.1045L13.7686 33.1318L13.751 33.2051L13.8682 33.2324L13.8506 33.3047L13.9688 33.332L13.9512 33.4053L14.0439 33.4268L14.1279 33.0508L14.0215 33.0264L14.0381 32.9531L13.9209 32.9268L13.9375 32.8525L13.8213 32.8262L13.8379 32.7529L13.7217 32.7266L13.7383 32.6543L13.6211 32.627L13.6377 32.5527L13.5215 32.5264L13.5381 32.4541L13.4209 32.4268L13.4375 32.3525L13.3213 32.3262L13.3379 32.2529L13.2217 32.2266L13.2383 32.1533L13.1211 32.127L13.1377 32.0527L13.0215 32.0264L13.0381 31.9531L12.9209 31.9268L12.9375 31.8525L12.8213 31.8262L12.8379 31.7529L12.7217 31.7266L12.7383 31.6533L12.6211 31.627L12.6377 31.5527L12.5215 31.5264L12.5381 31.4531L12.4209 31.4268L12.4375 31.3525L12.3213 31.3262L12.3379 31.2529L12.2217 31.2266L12.5098 29.9932C12.0551 29.1007 11.7057 28.1578 11.4688 27.1846L12.2383 26.9961C12.237 26.9873 12.2356 26.9785 12.2344 26.9697L12.1504 26.9834C12.1446 26.9457 12.1402 26.9078 12.1348 26.8701L12.0508 26.8838C12.045 26.8459 12.0406 26.8075 12.0352 26.7695L11.9502 26.7832C11.9444 26.7455 11.94 26.7076 11.9346 26.6699L11.8506 26.6836C11.8448 26.6459 11.8404 26.608 11.835 26.5703L11.75 26.584C11.7442 26.5461 11.7398 26.5076 11.7344 26.4697L11.6504 26.4834C11.6446 26.4457 11.6402 26.4078 11.6348 26.3701L11.5508 26.3838C11.545 26.3459 11.5406 26.3075 11.5352 26.2695L11.4502 26.2832C11.4444 26.2455 11.44 26.2076 11.4346 26.1699L11.3506 26.1836C11.3448 26.1459 11.3404 26.108 11.335 26.0703L11.25 26.084C11.1497 25.4276 11.0994 24.7636 11.0996 24.0996C11.0996 23.4254 11.1511 22.7628 11.25 22.1162L12.4551 22.3027C12.4509 22.33 12.4473 22.3574 12.4434 22.3848L12.5547 22.4023C12.5505 22.4296 12.5469 22.457 12.543 22.4844L12.6553 22.502C12.6511 22.5294 12.6476 22.5574 12.6436 22.585L12.7549 22.6025C12.7507 22.6298 12.7471 22.6572 12.7432 22.6846L12.8555 22.7021C12.8513 22.7297 12.8478 22.7576 12.8438 22.7852L12.9551 22.8027C12.9509 22.83 12.9473 22.8574 12.9434 22.8848L13.0547 22.9023C13.0505 22.9296 13.0469 22.957 13.043 22.9844L13.1553 23.002C13.1511 23.0294 13.1476 23.0574 13.1436 23.085L13.2549 23.1025C13.2507 23.1298 13.2471 23.1572 13.2432 23.1846L13.3555 23.2021C13.3513 23.2297 13.3478 23.2576 13.3438 23.2852L13.4551 23.3027C13.4509 23.33 13.4473 23.3574 13.4434 23.3848L13.5547 23.4023C13.5505 23.4296 13.5469 23.457 13.543 23.4844L13.5557 23.4863C13.5627 23.363 13.5727 23.2403 13.584 23.1182L13.5684 23.1152C13.5742 23.0912 13.5809 23.067 13.5869 23.043L13.4688 23.0146C13.4746 22.9908 13.4814 22.9672 13.4873 22.9434L13.3682 22.915C13.374 22.8912 13.3808 22.8675 13.3867 22.8437L13.2686 22.8154C13.2744 22.7914 13.2811 22.7672 13.2871 22.7432L13.168 22.7148C13.1738 22.691 13.1806 22.6674 13.1865 22.6436L13.0684 22.6152C13.0742 22.5912 13.0809 22.567 13.0869 22.543L12.9688 22.5146C12.9746 22.4908 12.9814 22.4672 12.9873 22.4434L12.8682 22.415C12.874 22.3912 12.8808 22.3675 12.8867 22.3437L12.7686 22.3154C12.7744 22.2914 12.7811 22.2672 12.7871 22.2432L12.668 22.2148C12.6738 22.191 12.6806 22.1674 12.6865 22.1436L12.5684 22.1152C12.5742 22.0912 12.5809 22.067 12.5869 22.043L12.4688 22.0146C12.4746 21.9908 12.4814 21.9672 12.4873 21.9434L12.3682 21.915C12.374 21.8912 12.3808 21.8675 12.3867 21.8437L12.2686 21.8154C12.2744 21.7914 12.2811 21.7672 12.2871 21.7432L12.168 21.7148C12.1738 21.691 12.1806 21.6674 12.1865 21.6436L12.0684 21.6152C12.0742 21.5912 12.0809 21.567 12.0869 21.543L11.9688 21.5146C11.9746 21.4908 11.9814 21.4672 11.9873 21.4434L11.8682 21.415C11.874 21.3909 11.8807 21.3669 11.8867 21.3428L11.7686 21.3145C11.7744 21.2906 11.7812 21.267 11.7871 21.2432L11.668 21.2148C11.6738 21.191 11.6806 21.1674 11.6865 21.1436L11.5684 21.1152C11.5742 21.0912 11.5809 21.067 11.5869 21.043L11.4688 21.0146C11.7835 19.7222 12.2952 18.4856 12.9873 17.3496L14.0293 17.9824C14.0235 17.9919 14.0174 18.0013 14.0117 18.0107L14.1299 18.083C14.1241 18.0925 14.1181 18.1018 14.1123 18.1113L14.2295 18.1826C14.2237 18.1921 14.2177 18.2015 14.2119 18.2109L14.3291 18.2822C14.3234 18.2917 14.3172 18.3011 14.3115 18.3105L14.4297 18.3828C14.4239 18.3923 14.4179 18.4016 14.4121 18.4111L14.5293 18.4824C14.5235 18.4919 14.5174 18.5013 14.5117 18.5107L14.6299 18.583C14.6241 18.5925 14.6181 18.6018 14.6123 18.6113L14.7295 18.6826C14.7237 18.6921 14.7177 18.7014 14.7119 18.7109L14.8291 18.7822C14.8234 18.7917 14.8172 18.8011 14.8115 18.8105L14.9199 18.877C15.0601 18.6311 15.2064 18.3892 15.3652 18.1562L15.3125 18.1172C15.3165 18.1117 15.3202 18.106 15.3242 18.1006L15.2119 18.0176C15.2162 18.0117 15.2203 18.0049 15.2246 17.999L15.1123 17.917C15.1166 17.9112 15.1207 17.9052 15.125 17.8994L15.0127 17.8174C15.017 17.8116 15.0211 17.8056 15.0254 17.7998L14.9121 17.7168C14.9164 17.711 14.9205 17.705 14.9248 17.6992L14.8125 17.6172C14.8168 17.6114 14.8209 17.6054 14.8252 17.5996L14.7119 17.5176C14.7162 17.5117 14.7203 17.5049 14.7246 17.499L14.6123 17.417C14.6166 17.4112 14.6207 17.4052 14.625 17.3994L14.5127 17.3174C14.517 17.3116 14.5211 17.3056 14.5254 17.2998L14.4121 17.2168C14.4164 17.211 14.4205 17.205 14.4248 17.1992L14.3125 17.1172C14.3168 17.1114 14.3209 17.1054 14.3252 17.0996L14.2119 17.0176C14.2162 17.0117 14.2203 17.0049 14.2246 16.999L14.1123 16.917C14.1166 16.9112 14.1207 16.9052 14.125 16.8994L14.0127 16.8174C14.017 16.8116 14.0211 16.8056 14.0254 16.7998L13.9121 16.7168C13.9164 16.711 13.9205 16.705 13.9248 16.6992L13.8125 16.6172C13.8168 16.6114 13.8209 16.6054 13.8252 16.5996L13.7119 16.5176C13.7162 16.5117 13.7203 16.5049 13.7246 16.499L13.6123 16.417C14.3992 15.3449 15.345 14.3992 16.417 13.6123L16.499 13.7246C16.505 13.7202 16.5116 13.7163 16.5176 13.7119L16.5996 13.8252C16.6054 13.8209 16.6114 13.8168 16.6172 13.8125L16.6992 13.9248C16.705 13.9205 16.711 13.9164 16.7168 13.9121L16.7988 14.0244C16.8048 14.02 16.8114 14.0161 16.8174 14.0117L16.8994 14.125C16.9052 14.1207 16.9112 14.1166 16.917 14.1123L16.999 14.2246C17.005 14.2202 17.0116 14.2163 17.0176 14.2119L17.0996 14.3252C17.1054 14.3209 17.1114 14.3168 17.1172 14.3125L17.1992 14.4248C17.205 14.4205 17.211 14.4164 17.2168 14.4121L17.2988 14.5244C17.3048 14.52 17.3114 14.5161 17.3174 14.5117L17.3994 14.625C17.4052 14.6207 17.4112 14.6166 17.417 14.6123L17.499 14.7246C17.505 14.7202 17.5116 14.7163 17.5176 14.7119L17.5996 14.8252C17.6054 14.8209 17.6114 14.8168 17.6172 14.8125L17.6992 14.9248C17.7052 14.9204 17.7118 14.9165 17.7178 14.9121L17.7998 15.0244C17.8056 15.0202 17.8116 15.0159 17.8174 15.0117L17.8994 15.125C17.9052 15.1207 17.9112 15.1166 17.917 15.1123L18 15.2246C18.0057 15.2204 18.0118 15.2161 18.0176 15.2119L18.1006 15.3242C18.106 15.3202 18.1117 15.3165 18.1172 15.3125L18.1562 15.3652C18.3892 15.2064 18.6311 15.0601 18.877 14.9199L18.8115 14.8115C18.802 14.8173 18.7927 14.8233 18.7832 14.8291L18.7119 14.7119C18.7023 14.7178 18.6923 14.7236 18.6826 14.7295L18.6113 14.6123C18.6019 14.618 18.5925 14.6241 18.583 14.6299L18.5117 14.5117C18.5022 14.5175 18.4929 14.5235 18.4834 14.5293L18.4121 14.4121C18.4024 14.418 18.3925 14.4238 18.3828 14.4297L18.3115 14.3115C18.302 14.3173 18.2927 14.3233 18.2832 14.3291L18.2119 14.2119C18.2022 14.2178 18.1923 14.2236 18.1826 14.2295L18.1113 14.1123C18.1019 14.118 18.0925 14.1241 18.083 14.1299L18.0117 14.0117C18.0021 14.0176 17.9921 14.0234 17.9824 14.0293L17.3496 12.9873C18.4858 12.2951 19.7229 11.7825 21.0156 11.4678L21.0439 11.5869C21.0678 11.581 21.0914 11.5742 21.1152 11.5684L21.1436 11.6865C21.1674 11.6806 21.191 11.6738 21.2148 11.668L21.2432 11.7861C21.2672 11.7801 21.2914 11.7734 21.3154 11.7676L21.3438 11.8867C21.3676 11.8808 21.3912 11.874 21.415 11.8682L21.4434 11.9863C21.4673 11.9803 21.4916 11.9736 21.5156 11.9678L21.5439 12.0869C21.5678 12.081 21.5914 12.0742 21.6152 12.0684L21.6436 12.1865C21.6674 12.1806 21.691 12.1738 21.7148 12.168L21.7432 12.2871C21.7673 12.2811 21.7913 12.2744 21.8154 12.2686L21.8438 12.3867C21.8676 12.3808 21.8912 12.374 21.915 12.3682L21.9434 12.4863C21.9673 12.4803 21.9916 12.4736 22.0156 12.4678L22.0439 12.5869C22.0678 12.581 22.0914 12.5742 22.1152 12.5684L22.1436 12.6865C22.1674 12.6806 22.191 12.6738 22.2148 12.668L22.2432 12.7871C22.2673 12.7811 22.2913 12.7744 22.3154 12.7686L22.3438 12.8867C22.3676 12.8808 22.3912 12.874 22.415 12.8682L22.4434 12.9863C22.4673 12.9803 22.4916 12.9736 22.5156 12.9678L22.5439 13.0869C22.5678 13.081 22.5914 13.0742 22.6152 13.0684L22.6436 13.1865C22.6674 13.1806 22.691 13.1738 22.7148 13.168L22.7432 13.2871C22.7673 13.2811 22.7913 13.2744 22.8154 13.2686L22.8438 13.3867C22.8676 13.3808 22.8912 13.374 22.915 13.3682L22.9434 13.4863C22.9674 13.4803 22.9916 13.4736 23.0156 13.4678L23.0439 13.5869C23.0678 13.581 23.0914 13.5742 23.1152 13.5684L23.1182 13.584C23.2403 13.5727 23.363 13.5627 23.4863 13.5557L23.4844 13.543C23.457 13.5469 23.4296 13.5505 23.4023 13.5547L23.3848 13.4434C23.3574 13.4473 23.33 13.4509 23.3027 13.4551L23.2852 13.3428C23.2576 13.3468 23.2297 13.3503 23.2021 13.3545L23.1846 13.2432C23.1572 13.2471 23.1298 13.2507 23.1025 13.2549L23.085 13.1436C23.0575 13.1476 23.0294 13.1511 23.002 13.1553L22.9844 13.043C22.957 13.0469 22.9296 13.0505 22.9023 13.0547L22.8848 12.9434C22.8574 12.9473 22.83 12.9509 22.8027 12.9551L22.7852 12.8428C22.7575 12.8468 22.7297 12.8503 22.7021 12.8545L22.6846 12.7432C22.6572 12.7471 22.6298 12.7507 22.6025 12.7549L22.585 12.6436C22.5574 12.6476 22.5294 12.6511 22.502 12.6553L22.4844 12.543C22.457 12.5469 22.4296 12.5505 22.4023 12.5547L22.3848 12.4434C22.3574 12.4473 22.33 12.4509 22.3027 12.4551L22.1162 11.25C22.7725 11.1497 23.4357 11.0994 24.0996 11.0996Z" fill="url(#paint1_linear_4_170)"/>
<path d="M25.7977 35.645L25.9835 36.8497C25.3368 36.9486 24.6744 37 24 37C23.3256 37 22.663 36.9486 22.0163 36.8497L22.2023 35.6452C22.7882 35.7347 23.3886 35.7813 24 35.7813C24.6018 35.7815 25.2028 35.7359 25.7977 35.645Z" fill="url(#paint2_linear_4_170)"/>
<path d="M21.2042 35.4477L20.9149 36.6317C19.9418 36.3949 18.9995 36.0456 18.1071 35.5907L16.8734 35.8788L16.5965 34.6919L18.2638 34.3027L18.6605 34.5048C19.4689 34.9169 20.3225 35.2333 21.2042 35.4477Z" fill="url(#paint3_linear_4_170)"/>
<path d="M13.3081 31.4035L12.1213 31.1266L12.4093 29.8929C11.9546 29.0004 11.6052 28.0581 11.3683 27.0849L12.5523 26.7958C12.7669 27.6774 13.0833 28.5311 13.4952 29.3395L13.6971 29.7363L13.3081 31.4035Z" fill="url(#paint4_linear_4_170)"/>
<path d="M12.3548 25.7977L11.1503 25.9835C11.05 25.3271 10.9998 24.664 11 24C11 23.3256 11.0514 22.663 11.1503 22.0163L12.355 22.2023C12.2642 22.7972 12.2186 23.3982 12.2188 24C12.2188 24.6114 12.2653 25.2118 12.3548 25.7977Z" fill="url(#paint5_linear_4_170)"/>
<path d="M12.5525 21.2042L11.3683 20.9149C11.683 19.6223 12.1955 18.3861 12.8876 17.25L13.9295 17.8827C13.3024 18.9124 12.8379 20.0328 12.5525 21.2042Z" fill="url(#paint6_linear_4_170)"/>
<path d="M14.4954 17.0375L13.5123 16.3172C14.2992 15.245 15.2451 14.2991 16.3172 13.512L17.0375 14.4952C16.0657 15.2082 15.2084 16.0657 14.4954 17.0375Z" fill="url(#paint7_linear_4_170)"/>
<path d="M17.8829 13.9293L17.25 12.8874C18.3862 12.1953 19.6225 11.6828 20.9151 11.3681L21.2042 12.5523C20.0328 12.8378 18.9126 13.3023 17.8829 13.9295V13.9293Z" fill="url(#paint8_linear_4_170)"/>
<path d="M24 11C24.6744 11 25.337 11.0514 25.9837 11.1503L25.7977 12.355C25.2028 12.2642 24.6018 12.2186 24 12.2188C23.3888 12.2188 22.7886 12.2655 22.2023 12.3548L22.0165 11.1503C22.6729 11.05 23.336 10.9998 24 11Z" fill="url(#paint9_linear_4_170)"/>
<path d="M27.0851 11.3683L26.7958 12.5525C27.9672 12.8379 29.0876 13.3024 30.1173 13.9295L30.75 12.8874C29.6139 12.1954 28.3777 11.6829 27.0851 11.3683Z" fill="url(#paint10_linear_4_170)"/>
<path d="M31.6828 13.512L30.9627 14.4952C31.9345 15.2083 32.7916 16.0656 33.5046 17.0375L34.488 16.3172C33.7009 15.245 32.755 14.2991 31.6828 13.512Z" fill="url(#paint11_linear_4_170)"/>
<path d="M34.5625 24C34.5625 29.8335 29.8335 34.5625 24 34.5625C22.1495 34.5625 20.4104 34.0868 18.8981 33.2509C18.753 33.1694 18.5828 33.1447 18.4206 33.1817L13.7219 34.2779L14.8181 29.5796C14.8553 29.4173 14.8306 29.247 14.7491 29.1019C13.913 27.5894 13.4375 25.8503 13.4375 24C13.4375 18.1665 18.1665 13.4375 24 13.4375C29.8335 13.4375 34.5625 18.1665 34.5625 24Z" fill="url(#paint12_linear_4_170)"/>
<path d="M15.5679 34.9318L15.8447 36.1186L13.73 36.6122C12.3223 36.9405 11.0595 35.6775 11.388 34.27L11.8814 32.1553L13.0682 32.4321L12.5746 34.5471C12.4515 35.0748 12.9252 35.5485 13.4529 35.4254L15.5679 34.9318Z" fill="url(#paint13_linear_4_170)"/>
<path d="M35.1126 17.2502L34.0707 17.8829C34.6978 18.9126 35.1621 20.0329 35.4475 21.2042L36.6317 20.9151C36.3171 19.6225 35.8047 18.3862 35.1126 17.25V17.2502Z" fill="url(#paint14_linear_4_170)"/>
<path d="M36.8497 22.0165L35.645 22.2023C35.7359 22.7972 35.7815 23.3982 35.7812 24C35.7812 24.6114 35.7347 25.2116 35.645 25.7977L36.8497 25.9837C36.9486 25.337 37 24.6744 37 24C37 23.3256 36.9486 22.6632 36.8497 22.0165Z" fill="url(#paint15_linear_4_170)"/>
<path d="M34.0707 30.1173C34.6978 29.0876 35.1622 27.9672 35.4475 26.7958L36.6317 27.0851C36.317 28.3777 35.8045 29.6139 35.1124 30.75L34.0707 30.1173Z" fill="url(#paint16_linear_4_170)"/>
<path d="M33.5046 30.9627L34.488 31.683C33.7009 32.7552 32.755 33.701 31.6828 34.488L30.9625 33.5046C31.9343 32.7916 32.7915 31.9345 33.5046 30.9627Z" fill="url(#paint17_linear_4_170)"/>
<path d="M30.1171 34.0707L30.75 35.1126C29.6138 35.8047 28.3775 36.3171 27.0849 36.6317L26.7958 35.4475C27.9671 35.1621 29.0874 34.6978 30.1171 34.0707Z" fill="url(#paint18_linear_4_170)"/>
<path d="M43.9932 23.4834C43.9975 23.6551 44 23.8273 44 24C44 35.0457 35.0457 44 24 44C12.9543 44 4 35.0457 4 24C4 23.8273 4.00248 23.6551 4.00684 23.4834C4.26356 34.3058 13.1159 43 24 43C34.873 43 43.7192 34.3235 43.9932 23.5166V23.4834Z" fill="black" fill-opacity="0.1"/>
<defs>
<linearGradient id="paint0_linear_4_170" x1="24" y1="4" x2="24" y2="44" gradientUnits="userSpaceOnUse">
<stop stop-color="#4C57FD"/>
<stop offset="1" stop-color="#2D39FD"/>
</linearGradient>
<linearGradient id="paint1_linear_4_170" x1="23.5" y1="23.5" x2="37" y2="37" gradientUnits="userSpaceOnUse">
<stop stop-opacity="0.2"/>
<stop offset="1" stop-opacity="0"/>
</linearGradient>
<linearGradient id="paint2_linear_4_170" x1="24" y1="11" x2="24" y2="37" gradientUnits="userSpaceOnUse">
<stop stop-color="white"/>
<stop offset="1" stop-color="#CDD0FF"/>
</linearGradient>
<linearGradient id="paint3_linear_4_170" x1="24" y1="11" x2="24" y2="37" gradientUnits="userSpaceOnUse">
<stop stop-color="white"/>
<stop offset="1" stop-color="#CDD0FF"/>
</linearGradient>
<linearGradient id="paint4_linear_4_170" x1="24" y1="11" x2="24" y2="37" gradientUnits="userSpaceOnUse">
<stop stop-color="white"/>
<stop offset="1" stop-color="#CDD0FF"/>
</linearGradient>
<linearGradient id="paint5_linear_4_170" x1="24" y1="11" x2="24" y2="37" gradientUnits="userSpaceOnUse">
<stop stop-color="white"/>
<stop offset="1" stop-color="#CDD0FF"/>
</linearGradient>
<linearGradient id="paint6_linear_4_170" x1="24" y1="11" x2="24" y2="37" gradientUnits="userSpaceOnUse">
<stop stop-color="white"/>
<stop offset="1" stop-color="#CDD0FF"/>
</linearGradient>
<linearGradient id="paint7_linear_4_170" x1="24" y1="11" x2="24" y2="37" gradientUnits="userSpaceOnUse">
<stop stop-color="white"/>
<stop offset="1" stop-color="#CDD0FF"/>
</linearGradient>
<linearGradient id="paint8_linear_4_170" x1="24" y1="11" x2="24" y2="37" gradientUnits="userSpaceOnUse">
<stop stop-color="white"/>
<stop offset="1" stop-color="#CDD0FF"/>
</linearGradient>
<linearGradient id="paint9_linear_4_170" x1="24" y1="11" x2="24" y2="37" gradientUnits="userSpaceOnUse">
<stop stop-color="white"/>
<stop offset="1" stop-color="#CDD0FF"/>
</linearGradient>
<linearGradient id="paint10_linear_4_170" x1="24" y1="11" x2="24" y2="37" gradientUnits="userSpaceOnUse">
<stop stop-color="white"/>
<stop offset="1" stop-color="#CDD0FF"/>
</linearGradient>
<linearGradient id="paint11_linear_4_170" x1="24" y1="11" x2="24" y2="37" gradientUnits="userSpaceOnUse">
<stop stop-color="white"/>
<stop offset="1" stop-color="#CDD0FF"/>
</linearGradient>
<linearGradient id="paint12_linear_4_170" x1="24" y1="11" x2="24" y2="37" gradientUnits="userSpaceOnUse">
<stop stop-color="white"/>
<stop offset="1" stop-color="#CDD0FF"/>
</linearGradient>
<linearGradient id="paint13_linear_4_170" x1="24" y1="11" x2="24" y2="37" gradientUnits="userSpaceOnUse">
<stop stop-color="white"/>
<stop offset="1" stop-color="#CDD0FF"/>
</linearGradient>
<linearGradient id="paint14_linear_4_170" x1="24" y1="11" x2="24" y2="37" gradientUnits="userSpaceOnUse">
<stop stop-color="white"/>
<stop offset="1" stop-color="#CDD0FF"/>
</linearGradient>
<linearGradient id="paint15_linear_4_170" x1="24" y1="11" x2="24" y2="37" gradientUnits="userSpaceOnUse">
<stop stop-color="white"/>
<stop offset="1" stop-color="#CDD0FF"/>
</linearGradient>
<linearGradient id="paint16_linear_4_170" x1="24" y1="11" x2="24" y2="37" gradientUnits="userSpaceOnUse">
<stop stop-color="white"/>
<stop offset="1" stop-color="#CDD0FF"/>
</linearGradient>
<linearGradient id="paint17_linear_4_170" x1="24" y1="11" x2="24" y2="37" gradientUnits="userSpaceOnUse">
<stop stop-color="white"/>
<stop offset="1" stop-color="#CDD0FF"/>
</linearGradient>
<linearGradient id="paint18_linear_4_170" x1="24" y1="11" x2="24" y2="37" gradientUnits="userSpaceOnUse">
<stop stop-color="white"/>
<stop offset="1" stop-color="#CDD0FF"/>
</linearGradient>
</defs>
</svg>
